<svg width="546" height="345" viewBox="0 0 546 345" fill="none" xmlns="http://www.w3.org/2000/svg">
<g clip-path="url(#clip0_0_4871)">
<path d="M17.064 62.296C14.424 62.296 11.736 61.96 9 61.288C6.264 60.664 3.984 59.824 2.16 58.768L2.52 48.976H3.24L5.472 53.656C6.144 55 6.864 56.2 7.632 57.256C8.4 58.264 9.456 59.056 10.8 59.632C11.76 60.112 12.672 60.448 13.536 60.64C14.448 60.784 15.456 60.856 16.56 60.856C19.488 60.856 21.792 60.064 23.472 58.48C25.2 56.896 26.064 54.856 26.064 52.36C26.064 50.008 25.488 48.184 24.336 46.888C23.184 45.544 21.336 44.248 18.792 43L15.84 41.704C11.712 39.88 8.472 37.792 6.12 35.44C3.816 33.04 2.664 29.872 2.664 25.936C2.664 23.104 3.384 20.656 4.824 18.592C6.312 16.528 8.352 14.944 10.944 13.84C13.584 12.736 16.656 12.184 20.16 12.184C22.704 12.184 25.104 12.52 27.36 13.192C29.664 13.864 31.656 14.776 33.336 15.928L32.904 24.568H32.184L29.232 19.168C28.416 17.488 27.6 16.312 26.784 15.64C25.968 14.92 25.032 14.416 23.976 14.128C23.352 13.936 22.776 13.816 22.248 13.768C21.72 13.672 21.048 13.624 20.232 13.624C17.784 13.624 15.72 14.344 14.04 15.784C12.36 17.176 11.52 19.072 11.52 21.472C11.52 23.92 12.168 25.888 13.464 27.376C14.76 28.816 16.656 30.112 19.152 31.264L22.464 32.704C27.072 34.72 30.384 36.88 32.4 39.184C34.416 41.44 35.424 44.368 35.424 47.968C35.424 52.192 33.816 55.648 30.6 58.336C27.432 60.976 22.92 62.296 17.064 62.296ZM51.4099 62.08C48.3379 62.08 45.9379 61.312 44.2099 59.776C42.5299 58.24 41.6899 55.792 41.6899 52.432V27.808H36.7219V27.088L38.4499 26.8C39.9379 26.464 41.2099 25.984 42.2659 25.36C43.3699 24.736 44.4499 23.896 45.5059 22.84L51.4099 16.288H52.1299L51.9139 26.368H59.9779V27.808H51.8419V53.728C51.8419 55.408 52.2019 56.68 52.9219 57.544C53.6899 58.408 54.6499 58.84 55.8019 58.84C56.8099 58.84 57.6979 58.6 58.4659 58.12C59.2339 57.592 60.0019 56.896 60.7699 56.032L61.4899 56.752C60.5299 58.384 59.2099 59.68 57.5299 60.64C55.8499 61.6 53.8099 62.08 51.4099 62.08ZM73.7037 62.08C70.9197 62.08 68.5677 61.288 66.6477 59.704C64.7757 58.12 63.8397 55.84 63.8397 52.864C63.8397 50.608 64.9917 48.544 67.2957 46.672C69.5997 44.752 73.2237 43.312 78.1677 42.352C78.9357 42.208 79.7997 42.064 80.7597 41.92C81.7197 41.728 82.7277 41.536 83.7837 41.344V35.656C83.7837 32.392 83.3757 30.112 82.5597 28.816C81.7917 27.472 80.5677 26.8 78.8877 26.8C77.7357 26.8 76.8237 27.184 76.1517 27.952C75.4797 28.672 75.0477 29.944 74.8557 31.768L74.7117 32.56C74.6157 34.624 74.1117 36.136 73.1997 37.096C72.2877 38.056 71.1597 38.536 69.8157 38.536C68.5677 38.536 67.5357 38.152 66.7197 37.384C65.9037 36.616 65.4957 35.584 65.4957 34.288C65.4957 32.32 66.1677 30.664 67.5117 29.32C68.9037 27.976 70.7277 26.968 72.9837 26.296C75.2397 25.624 77.6877 25.288 80.3277 25.288C84.5997 25.288 87.8877 26.344 90.1917 28.456C92.5437 30.52 93.7197 33.904 93.7197 38.608V54.52C93.7197 56.68 94.7277 57.76 96.7437 57.76H98.3277L98.9757 58.336C98.0637 59.488 97.0557 60.376 95.9517 61C94.8957 61.624 93.3837 61.936 91.4157 61.936C89.3037 61.936 87.6237 61.456 86.3757 60.496C85.1757 59.488 84.3837 58.168 83.9997 56.536C82.5597 58.072 81.0717 59.392 79.5357 60.496C78.0477 61.552 76.1037 62.08 73.7037 62.08ZM78.0957 57.688C79.0557 57.688 79.9437 57.472 80.7597 57.04C81.6237 56.56 82.6317 55.84 83.7837 54.88V42.784C83.3037 42.88 82.8237 42.976 82.3437 43.072C81.8637 43.168 81.3117 43.264 80.6877 43.36C78.4797 43.936 76.7037 44.92 75.3597 46.312C74.0637 47.656 73.4157 49.48 73.4157 51.784C73.4157 53.752 73.8717 55.24 74.7837 56.248C75.6957 57.208 76.7997 57.688 78.0957 57.688ZM99.7628 61V60.28L100.843 59.992C101.803 59.704 102.451 59.272 102.787 58.696C103.171 58.12 103.363 57.376 103.363 56.464V33.928C103.363 32.872 103.171 32.104 102.787 31.624C102.451 31.096 101.803 30.736 100.843 30.544L99.7628 30.256V29.536L112.147 25.36L112.867 26.08L113.515 32.272V32.848C114.187 31.504 115.051 30.28 116.107 29.176C117.211 28.024 118.411 27.088 119.707 26.368C121.051 25.648 122.371 25.288 123.667 25.288C125.491 25.288 126.883 25.792 127.843 26.8C128.803 27.808 129.283 29.08 129.283 30.616C129.283 32.248 128.803 33.52 127.843 34.432C126.931 35.296 125.827 35.728 124.531 35.728C122.515 35.728 120.739 34.72 119.203 32.704L119.059 32.56C118.579 31.888 118.027 31.528 117.403 31.48C116.779 31.384 116.203 31.672 115.675 32.344C115.195 32.776 114.787 33.304 114.451 33.928C114.163 34.504 113.875 35.176 113.587 35.944V56.032C113.587 57.952 114.427 59.152 116.107 59.632L118.411 60.28V61H99.7628ZM145.303 62.08C142.231 62.08 139.831 61.312 138.103 59.776C136.423 58.24 135.583 55.792 135.583 52.432V27.808H130.615V27.088L132.343 26.8C133.831 26.464 135.103 25.984 136.159 25.36C137.263 24.736 138.343 23.896 139.399 22.84L145.303 16.288H146.023L145.807 26.368H153.871V27.808H145.735V53.728C145.735 55.408 146.095 56.68 146.815 57.544C147.583 58.408 148.543 58.84 149.695 58.84C150.703 58.84 151.591 58.6 152.359 58.12C153.127 57.592 153.895 56.896 154.663 56.032L155.383 56.752C154.423 58.384 153.103 59.68 151.423 60.64C149.743 61.6 147.703 62.08 145.303 62.08ZM184.523 61.936L172.355 61V60.28L173.075 60.136C174.947 59.704 175.883 58.504 175.883 56.536V18.016C175.883 17.008 175.715 16.24 175.379 15.712C175.091 15.184 174.467 14.824 173.507 14.632L172.499 14.344V13.624L185.315 10.528L186.179 11.176L185.891 21.328V28.6C187.475 27.496 189.203 26.68 191.075 26.152C192.947 25.576 194.843 25.288 196.763 25.288C199.499 25.288 201.923 25.936 204.035 27.232C206.147 28.48 207.803 30.448 209.003 33.136C210.251 35.776 210.875 39.184 210.875 43.36C210.875 47.536 210.179 51.016 208.787 53.8C207.443 56.536 205.619 58.6 203.315 59.992C201.059 61.384 198.563 62.08 195.827 62.08C194.051 62.08 192.251 61.84 190.427 61.36C188.651 60.88 187.067 60.208 185.675 59.344L184.523 61.936ZM192.227 59.632C193.763 59.632 195.107 59.152 196.259 58.192C197.411 57.232 198.323 55.6 198.995 53.296C199.667 50.944 200.003 47.728 200.003 43.648C200.003 39.568 199.691 36.424 199.067 34.216C198.443 32.008 197.555 30.472 196.403 29.608C195.299 28.744 193.955 28.312 192.371 28.312C190.115 28.312 188.027 28.936 186.107 30.184V57.832C187.019 58.408 187.955 58.864 188.915 59.2C189.875 59.488 190.979 59.632 192.227 59.632ZM226.244 62.08C224.372 62.08 222.644 61.72 221.06 61C219.524 60.28 218.3 59.128 217.388 57.544C216.524 55.912 216.116 53.776 216.164 51.136L216.38 32.632C216.38 31.528 216.188 30.736 215.804 30.256C215.42 29.776 214.82 29.44 214.004 29.248L213.14 28.96V28.24L226.028 25.72L226.748 26.44L226.388 36.664V54.016C226.388 55.552 226.82 56.68 227.684 57.4C228.596 58.12 229.724 58.48 231.068 58.48C232.412 58.48 233.612 58.288 234.668 57.904C235.724 57.52 236.78 56.944 237.836 56.176L238.124 32.704C238.124 31.6 237.956 30.832 237.62 30.4C237.284 29.92 236.66 29.584 235.748 29.392L235.028 29.176V28.456L247.628 25.72L248.348 26.44L248.132 36.664V56.176C248.132 57.232 248.276 58.048 248.564 58.624C248.852 59.2 249.476 59.68 250.436 60.064L251.156 60.28V61L238.556 61.72L237.908 57.472C236.324 58.768 234.596 59.872 232.724 60.784C230.9 61.648 228.74 62.08 226.244 62.08ZM262.149 21.544C260.517 21.544 259.125 21.04 257.973 20.032C256.869 18.976 256.317 17.656 256.317 16.072C256.317 14.44 256.869 13.12 257.973 12.112C259.125 11.104 260.517 10.6 262.149 10.6C263.781 10.6 265.149 11.104 266.253 12.112C267.357 13.12 267.909 14.44 267.909 16.072C267.909 17.656 267.357 18.976 266.253 20.032C265.149 21.04 263.781 21.544 262.149 21.544ZM253.653 61V60.28L254.661 59.992C255.621 59.704 256.269 59.272 256.605 58.696C256.989 58.12 257.181 57.352 257.181 56.392V33.856C257.181 32.848 256.989 32.104 256.605 31.624C256.269 31.096 255.621 30.736 254.661 30.544L253.653 30.328V29.608L266.829 25.36L267.549 26.08L267.333 36.304V56.464C267.333 57.424 267.501 58.192 267.837 58.768C268.221 59.344 268.869 59.776 269.781 60.064L270.501 60.28V61H253.653ZM273.351 61V60.28L274.215 59.992C275.943 59.416 276.807 58.216 276.807 56.392V17.872C276.807 16.912 276.615 16.192 276.231 15.712C275.847 15.184 275.175 14.8 274.215 14.56L273.279 14.344V13.624L286.455 10.528L287.319 11.176L287.031 21.256V45.88C287.031 47.656 287.031 49.432 287.031 51.208C287.079 52.936 287.103 54.664 287.103 56.392C287.103 57.352 287.295 58.144 287.679 58.768C288.063 59.344 288.711 59.776 289.623 60.064L290.559 60.28V61H273.351ZM308.447 62.08C305.615 62.08 303.071 61.456 300.815 60.208C298.559 58.912 296.759 56.944 295.415 54.304C294.119 51.616 293.471 48.184 293.471 44.008C293.471 39.784 294.215 36.304 295.703 33.568C297.191 30.784 299.159 28.72 301.607 27.376C304.055 25.984 306.719 25.288 309.599 25.288C311.279 25.288 312.887 25.456 314.423 25.792C315.959 26.128 317.327 26.632 318.527 27.304V17.944C318.527 16.936 318.359 16.192 318.023 15.712C317.735 15.232 317.087 14.896 316.079 14.704L314.711 14.416V13.696L327.815 10.528L328.607 11.176L328.319 21.256V56.464C328.319 57.424 328.487 58.216 328.823 58.84C329.159 59.416 329.783 59.824 330.695 60.064L331.343 60.28V61L319.031 61.792L318.383 59.2C317.087 60.064 315.599 60.76 313.919 61.288C312.287 61.816 310.463 62.08 308.447 62.08ZM312.623 59.416C314.639 59.416 316.487 58.816 318.167 57.616V29.032C316.391 27.88 314.567 27.304 312.695 27.304C310.391 27.304 308.423 28.648 306.791 31.336C305.159 33.976 304.343 38.152 304.343 43.864C304.343 49.576 305.111 53.608 306.647 55.96C308.183 58.264 310.175 59.416 312.623 59.416ZM342.613 21.544C340.981 21.544 339.589 21.04 338.437 20.032C337.333 18.976 336.781 17.656 336.781 16.072C336.781 14.44 337.333 13.12 338.437 12.112C339.589 11.104 340.981 10.6 342.613 10.6C344.245 10.6 345.613 11.104 346.717 12.112C347.821 13.12 348.373 14.44 348.373 16.072C348.373 17.656 347.821 18.976 346.717 20.032C345.613 21.04 344.245 21.544 342.613 21.544ZM334.117 61V60.28L335.125 59.992C336.085 59.704 336.733 59.272 337.069 58.696C337.453 58.12 337.645 57.352 337.645 56.392V33.856C337.645 32.848 337.453 32.104 337.069 31.624C336.733 31.096 336.085 30.736 335.125 30.544L334.117 30.328V29.608L347.293 25.36L348.013 26.08L347.797 36.304V56.464C347.797 57.424 347.965 58.192 348.301 58.768C348.685 59.344 349.333 59.776 350.245 60.064L350.965 60.28V61H334.117ZM353.599 61V60.28L354.607 59.992C356.287 59.512 357.127 58.336 357.127 56.464V33.928C357.127 32.872 356.959 32.104 356.623 31.624C356.287 31.096 355.639 30.736 354.679 30.544L353.599 30.256V29.536L365.911 25.36L366.631 26.08L367.207 30.4C368.887 28.912 370.783 27.688 372.895 26.728C375.007 25.768 377.095 25.288 379.159 25.288C382.327 25.288 384.751 26.152 386.431 27.88C388.159 29.608 389.023 32.248 389.023 35.8V56.536C389.023 58.408 389.935 59.584 391.759 60.064L392.407 60.28V61H375.415V60.28L376.351 59.992C378.031 59.464 378.871 58.288 378.871 56.464V33.496C378.871 30.424 377.335 28.888 374.263 28.888C372.151 28.888 369.847 29.944 367.351 32.056V56.536C367.351 58.408 368.191 59.584 369.871 60.064L370.519 60.28V61H353.599ZM410.366 48.544C407.054 48.544 404.246 47.992 401.942 46.888V49.336C401.942 50.824 402.686 51.712 404.174 52L417.71 54.52C419.966 54.952 422.006 55.528 423.83 56.248C425.654 56.92 427.118 57.904 428.222 59.2C429.326 60.448 429.878 62.176 429.878 64.384C429.878 66.736 429.11 68.896 427.574 70.864C426.038 72.88 423.758 74.488 420.734 75.688C417.758 76.936 414.038 77.56 409.574 77.56C405.734 77.56 402.686 77.152 400.43 76.336C398.174 75.568 396.566 74.56 395.606 73.312C394.694 72.064 394.238 70.744 394.238 69.352C394.238 67.624 394.814 65.872 395.966 64.096C397.166 62.368 398.63 60.976 400.358 59.92C398.87 59.344 397.79 58.6 397.118 57.688C396.446 56.776 396.11 55.792 396.11 54.736C396.11 53.776 396.35 52.888 396.83 52.072C397.358 51.208 397.982 50.344 398.702 49.48L401.078 46.456C397.574 44.44 395.822 41.272 395.822 36.952C395.822 33.496 397.046 30.688 399.494 28.528C401.99 26.368 405.638 25.288 410.438 25.288C412.886 25.288 415.022 25.576 416.846 26.152C418.718 26.728 420.254 27.544 421.454 28.6C422.99 28.36 424.43 27.976 425.774 27.448C427.166 26.872 428.414 26.104 429.518 25.144L430.526 25.864V29.536H422.39C424.118 31.456 424.982 33.928 424.982 36.952C424.982 40.312 423.734 43.096 421.238 45.304C418.79 47.464 415.166 48.544 410.366 48.544ZM410.294 47.104C412.214 47.104 413.606 46.312 414.47 44.728C415.382 43.144 415.838 40.504 415.838 36.808C415.838 33.112 415.382 30.52 414.47 29.032C413.606 27.496 412.262 26.728 410.438 26.728C408.662 26.728 407.318 27.52 406.406 29.104C405.494 30.64 405.038 33.256 405.038 36.952C405.038 40.648 405.446 43.264 406.262 44.8C407.126 46.336 408.47 47.104 410.294 47.104ZM399.566 67.048C399.566 69.88 400.43 72.016 402.158 73.456C403.934 74.896 406.718 75.616 410.51 75.616C414.494 75.616 417.494 74.968 419.51 73.672C421.526 72.376 422.534 70.552 422.534 68.2C422.534 66.856 422.03 65.776 421.022 64.96C420.062 64.144 418.406 63.52 416.054 63.088L403.022 60.64C402.638 60.544 402.254 60.448 401.87 60.352C401.198 61.312 400.646 62.392 400.214 63.592C399.782 64.84 399.566 65.992 399.566 67.048ZM16.2 133.216L5.112 102.76C4.584 101.224 3.528 100.144 1.944 99.52L0.72 99.088V98.368H18.36V99.088L17.28 99.376C15.408 99.952 14.784 101.104 15.408 102.832L22.104 123.208L28.08 107.368L26.712 103.264C26.376 102.208 26.016 101.416 25.632 100.888C25.296 100.312 24.84 99.904 24.264 99.664L23.04 99.088V98.368H37.944V99.088L36.936 99.52C36.216 99.808 35.784 100.192 35.64 100.672C35.496 101.152 35.592 101.872 35.928 102.832L42.552 122.848L49.392 102.976C50.064 101.152 49.704 100 48.312 99.52L46.728 99.088V98.368H55.368V99.088L53.64 99.592C52.824 99.832 52.224 100.216 51.84 100.744C51.504 101.224 51.192 101.896 50.904 102.76L40.536 133.216H36.864L28.872 109.672L20.376 133.216H16.2ZM65.7762 93.544C64.1442 93.544 62.7522 93.04 61.6002 92.032C60.4962 90.976 59.9442 89.656 59.9442 88.072C59.9442 86.44 60.4962 85.12 61.6002 84.112C62.7522 83.104 64.1442 82.6 65.7762 82.6C67.4082 82.6 68.7762 83.104 69.8802 84.112C70.9842 85.12 71.5362 86.44 71.5362 88.072C71.5362 89.656 70.9842 90.976 69.8802 92.032C68.7762 93.04 67.4082 93.544 65.7762 93.544ZM57.2802 133V132.28L58.2882 131.992C59.2482 131.704 59.8962 131.272 60.2322 130.696C60.6162 130.12 60.8082 129.352 60.8082 128.392V105.856C60.8082 104.848 60.6162 104.104 60.2322 103.624C59.8962 103.096 59.2482 102.736 58.2882 102.544L57.2802 102.328V101.608L70.4562 97.36L71.1762 98.08L70.9602 108.304V128.464C70.9602 129.424 71.1282 130.192 71.4642 130.768C71.8482 131.344 72.4962 131.776 73.4082 132.064L74.1282 132.28V133H57.2802ZM90.442 134.08C87.37 134.08 84.97 133.312 83.242 131.776C81.562 130.24 80.722 127.792 80.722 124.432V99.808H75.754V99.088L77.482 98.8C78.97 98.464 80.242 97.984 81.298 97.36C82.402 96.736 83.482 95.896 84.538 94.84L90.442 88.288H91.162L90.946 98.368H99.01V99.808H90.874V125.728C90.874 127.408 91.234 128.68 91.954 129.544C92.722 130.408 93.682 130.84 94.834 130.84C95.842 130.84 96.73 130.6 97.498 130.12C98.266 129.592 99.034 128.896 99.802 128.032L100.522 128.752C99.562 130.384 98.242 131.68 96.562 132.64C94.882 133.6 92.842 134.08 90.442 134.08ZM102.44 133V132.28L103.304 131.992C105.032 131.416 105.896 130.216 105.896 128.392V89.944C105.896 88.936 105.728 88.192 105.392 87.712C105.056 87.232 104.408 86.872 103.448 86.632L102.368 86.344V85.624L115.04 82.528L116.192 83.176L115.904 93.328V102.328C117.584 100.936 119.384 99.76 121.304 98.8C123.272 97.792 125.432 97.288 127.784 97.288C130.904 97.288 133.376 98.176 135.2 99.952C137.072 101.728 138.008 104.464 138.008 108.16V128.464C138.008 129.424 138.2 130.192 138.584 130.768C138.968 131.344 139.64 131.776 140.6 132.064L141.176 132.28V133H124.328V132.28L125.192 132.064C126.92 131.488 127.784 130.264 127.784 128.392V105.784C127.784 103.864 127.448 102.544 126.776 101.824C126.152 101.104 125.024 100.744 123.392 100.744C122.336 100.744 121.184 100.96 119.936 101.392C118.688 101.776 117.416 102.472 116.12 103.48V128.536C116.12 130.408 116.984 131.608 118.712 132.136L119.288 132.28V133H102.44ZM176.777 134.08C173.129 134.08 169.961 133.336 167.273 131.848C164.585 130.312 162.497 128.152 161.009 125.368C159.569 122.584 158.849 119.32 158.849 115.576C158.849 111.832 159.617 108.592 161.153 105.856C162.737 103.12 164.873 101.008 167.561 99.52C170.297 98.032 173.369 97.288 176.777 97.288C180.185 97.288 183.233 98.032 185.921 99.52C188.609 100.96 190.721 103.048 192.257 105.784C193.841 108.52 194.633 111.784 194.633 115.576C194.633 119.368 193.889 122.656 192.401 125.44C190.961 128.176 188.897 130.312 186.209 131.848C183.569 133.336 180.425 134.08 176.777 134.08ZM176.777 132.64C178.457 132.64 179.801 132.16 180.809 131.2C181.817 130.24 182.537 128.536 182.969 126.088C183.449 123.64 183.689 120.184 183.689 115.72C183.689 111.208 183.449 107.728 182.969 105.28C182.537 102.832 181.817 101.128 180.809 100.168C179.801 99.208 178.457 98.728 176.777 98.728C175.097 98.728 173.729 99.208 172.673 100.168C171.665 101.128 170.921 102.832 170.441 105.28C170.009 107.728 169.793 111.208 169.793 115.72C169.793 120.184 170.009 123.64 170.441 126.088C170.921 128.536 171.665 130.24 172.673 131.2C173.729 132.16 175.097 132.64 176.777 132.64ZM209.993 134.08C208.121 134.08 206.393 133.72 204.809 133C203.273 132.28 202.049 131.128 201.137 129.544C200.273 127.912 199.865 125.776 199.913 123.136L200.129 104.632C200.129 103.528 199.937 102.736 199.553 102.256C199.169 101.776 198.569 101.44 197.753 101.248L196.889 100.96V100.24L209.777 97.72L210.497 98.44L210.137 108.664V126.016C210.137 127.552 210.569 128.68 211.433 129.4C212.345 130.12 213.473 130.48 214.817 130.48C216.161 130.48 217.361 130.288 218.417 129.904C219.473 129.52 220.529 128.944 221.585 128.176L221.873 104.704C221.873 103.6 221.705 102.832 221.369 102.4C221.033 101.92 220.409 101.584 219.497 101.392L218.777 101.176V100.456L231.377 97.72L232.097 98.44L231.881 108.664V128.176C231.881 129.232 232.025 130.048 232.313 130.624C232.601 131.2 233.225 131.68 234.185 132.064L234.905 132.28V133L222.305 133.72L221.657 129.472C220.073 130.768 218.345 131.872 216.473 132.784C214.649 133.648 212.489 134.08 209.993 134.08ZM237.258 133V132.28L238.338 131.992C239.298 131.704 239.946 131.272 240.282 130.696C240.666 130.12 240.858 129.376 240.858 128.464V105.928C240.858 104.872 240.666 104.104 240.282 103.624C239.946 103.096 239.298 102.736 238.338 102.544L237.258 102.256V101.536L249.642 97.36L250.362 98.08L251.01 104.272V104.848C251.682 103.504 252.546 102.28 253.602 101.176C254.706 100.024 255.906 99.088 257.202 98.368C258.546 97.648 259.866 97.288 261.162 97.288C262.986 97.288 264.378 97.792 265.338 98.8C266.298 99.808 266.778 101.08 266.778 102.616C266.778 104.248 266.298 105.52 265.338 106.432C264.426 107.296 263.322 107.728 262.026 107.728C260.01 107.728 258.234 106.72 256.698 104.704L256.554 104.56C256.074 103.888 255.522 103.528 254.898 103.48C254.274 103.384 253.698 103.672 253.17 104.344C252.69 104.776 252.282 105.304 251.946 105.928C251.658 106.504 251.37 107.176 251.082 107.944V128.032C251.082 129.952 251.922 131.152 253.602 131.632L255.906 132.28V133H237.258ZM282.748 133V132.28L284.548 131.632C285.508 131.248 286.252 130.792 286.78 130.264C287.308 129.688 287.74 128.896 288.076 127.888L302.908 85.336H309.028L323.644 128.176C324.028 129.232 324.46 130.048 324.94 130.624C325.42 131.152 326.164 131.608 327.172 131.992L328.036 132.28V133H309.748V132.28L310.828 131.92C311.836 131.536 312.436 131.008 312.628 130.336C312.868 129.616 312.844 128.776 312.556 127.816L309.172 117.448H293.188L289.732 127.6C289.396 128.656 289.276 129.496 289.372 130.12C289.516 130.744 290.092 131.248 291.1 131.632L292.684 132.28V133H282.748ZM293.692 116.008H308.74L301.468 93.616L293.692 116.008ZM329.749 133V132.28L331.189 131.776C332.149 131.488 332.773 131.056 333.061 130.48C333.397 129.904 333.565 129.136 333.565 128.176V90.448C333.565 89.488 333.397 88.72 333.061 88.144C332.725 87.568 332.077 87.112 331.117 86.776L329.749 86.2V85.48H347.245C354.397 85.48 359.557 86.8 362.725 89.44C365.941 92.032 367.549 95.464 367.549 99.736C367.549 102.472 366.877 104.992 365.533 107.296C364.237 109.552 362.077 111.352 359.053 112.696C356.029 114.04 351.949 114.712 346.813 114.712H344.365V127.96C344.365 129.832 345.301 131.056 347.173 131.632L349.333 132.28V133H329.749ZM344.365 113.272H347.101C349.453 113.272 351.373 112.888 352.861 112.12C354.349 111.352 355.453 110.008 356.173 108.088C356.893 106.168 357.253 103.504 357.253 100.096C357.253 96.64 356.845 93.952 356.029 92.032C355.261 90.112 354.109 88.792 352.573 88.072C351.037 87.304 349.117 86.92 346.813 86.92H344.365V113.272ZM369.203 133V132.28L370.643 131.704C371.603 131.368 372.227 130.912 372.515 130.336C372.851 129.76 373.019 128.992 373.019 128.032V90.448C373.019 89.488 372.875 88.72 372.587 88.144C372.299 87.568 371.651 87.112 370.643 86.776L369.203 86.2V85.48H387.707V86.2L386.267 86.776C385.307 87.112 384.659 87.568 384.323 88.144C384.035 88.72 383.891 89.488 383.891 90.448V128.032C383.891 128.992 384.035 129.76 384.323 130.336C384.659 130.864 385.307 131.32 386.267 131.704L387.707 132.28V133H369.203ZM401.633 134.08C399.281 134.08 397.169 133.792 395.297 133.216C393.425 132.688 391.697 132.016 390.113 131.2L390.185 122.632H390.905L393.353 126.952C394.409 128.872 395.561 130.312 396.809 131.272C398.105 132.184 399.737 132.64 401.705 132.64C404.009 132.64 405.857 132.136 407.249 131.128C408.689 130.072 409.409 128.68 409.409 126.952C409.409 125.368 408.905 124.072 407.897 123.064C406.889 122.056 405.017 121.144 402.281 120.328L399.257 119.392C396.329 118.528 394.025 117.184 392.345 115.36C390.665 113.536 389.825 111.304 389.825 108.664C389.825 105.496 391.073 102.808 393.569 100.6C396.065 98.392 399.641 97.288 404.297 97.288C406.169 97.288 407.921 97.504 409.553 97.936C411.233 98.32 412.841 98.92 414.377 99.736L413.945 107.512H413.225L410.705 103.048C409.793 101.464 408.881 100.36 407.969 99.736C407.105 99.064 405.785 98.728 404.009 98.728C402.377 98.728 400.841 99.184 399.401 100.096C397.961 101.008 397.241 102.304 397.241 103.984C397.241 105.616 397.841 106.912 399.041 107.872C400.289 108.832 402.113 109.72 404.513 110.536L407.753 111.472C411.209 112.528 413.681 113.992 415.169 115.864C416.657 117.688 417.401 119.896 417.401 122.488C417.401 125.992 416.009 128.8 413.225 130.912C410.489 133.024 406.625 134.08 401.633 134.08ZM435.252 133V132.28L436.188 132.064C437.1 131.824 437.82 131.416 438.348 130.84C438.876 130.216 439.14 129.424 439.14 128.464C439.14 126.688 439.14 124.936 439.14 123.208C439.188 121.432 439.212 119.656 439.212 117.88V99.808H435.18V99.016L436.764 98.728C437.724 98.632 438.42 98.296 438.852 97.72C439.284 97.144 439.596 96.352 439.788 95.344C440.268 93.472 440.964 91.84 441.876 90.448C442.836 89.008 443.916 87.688 445.116 86.488C446.94 84.76 448.86 83.56 450.876 82.888C452.94 82.168 454.956 81.808 456.924 81.808C458.844 81.808 460.596 82.216 462.18 83.032C463.764 83.8 464.556 85.096 464.556 86.92C464.556 88.216 464.172 89.248 463.404 90.016C462.636 90.736 461.556 91.096 460.164 91.096C459.012 91.096 457.956 90.784 456.996 90.16C456.036 89.536 455.1 88.432 454.188 86.848L453.18 85.624C452.652 84.952 452.124 84.64 451.596 84.688C451.068 84.688 450.684 85.072 450.444 85.84C450.108 87.52 449.844 89.488 449.652 91.744C449.508 94 449.436 96.208 449.436 98.368H457.5V99.808H449.436V128.32C449.436 130.144 450.396 131.32 452.316 131.848L454.116 132.28V133H435.252ZM476.606 134.08C472.958 134.08 469.79 133.336 467.102 131.848C464.414 130.312 462.326 128.152 460.838 125.368C459.398 122.584 458.678 119.32 458.678 115.576C458.678 111.832 459.446 108.592 460.982 105.856C462.566 103.12 464.702 101.008 467.39 99.52C470.126 98.032 473.198 97.288 476.606 97.288C480.014 97.288 483.062 98.032 485.75 99.52C488.438 100.96 490.55 103.048 492.086 105.784C493.67 108.52 494.462 111.784 494.462 115.576C494.462 119.368 493.718 122.656 492.23 125.44C490.79 128.176 488.726 130.312 486.038 131.848C483.398 133.336 480.254 134.08 476.606 134.08ZM476.606 132.64C478.286 132.64 479.63 132.16 480.638 131.2C481.646 130.24 482.366 128.536 482.798 126.088C483.278 123.64 483.518 120.184 483.518 115.72C483.518 111.208 483.278 107.728 482.798 105.28C482.366 102.832 481.646 101.128 480.638 100.168C479.63 99.208 478.286 98.728 476.606 98.728C474.926 98.728 473.558 99.208 472.502 100.168C471.494 101.128 470.75 102.832 470.27 105.28C469.838 107.728 469.622 111.208 469.622 115.72C469.622 120.184 469.838 123.64 470.27 126.088C470.75 128.536 471.494 130.24 472.502 131.2C473.558 132.16 474.926 132.64 476.606 132.64ZM497.071 133V132.28L498.151 131.992C499.111 131.704 499.759 131.272 500.095 130.696C500.479 130.12 500.671 129.376 500.671 128.464V105.928C500.671 104.872 500.479 104.104 500.095 103.624C499.759 103.096 499.111 102.736 498.151 102.544L497.071 102.256V101.536L509.455 97.36L510.175 98.08L510.823 104.272V104.848C511.495 103.504 512.359 102.28 513.415 101.176C514.519 100.024 515.719 99.088 517.015 98.368C518.359 97.648 519.679 97.288 520.975 97.288C522.799 97.288 524.191 97.792 525.151 98.8C526.111 99.808 526.591 101.08 526.591 102.616C526.591 104.248 526.111 105.52 525.151 106.432C524.239 107.296 523.135 107.728 521.839 107.728C519.823 107.728 518.047 106.72 516.511 104.704L516.367 104.56C515.887 103.888 515.335 103.528 514.711 103.48C514.087 103.384 513.511 103.672 512.983 104.344C512.503 104.776 512.095 105.304 511.759 105.928C511.471 106.504 511.183 107.176 510.895 107.944V128.032C510.895 129.952 511.735 131.152 513.415 131.632L515.719 132.28V133H497.071ZM11.952 206.08C9.168 206.08 6.816 205.288 4.896 203.704C3.024 202.12 2.088 199.84 2.088 196.864C2.088 194.608 3.24 192.544 5.544 190.672C7.848 188.752 11.472 187.312 16.416 186.352C17.184 186.208 18.048 186.064 19.008 185.92C19.968 185.728 20.976 185.536 22.032 185.344V179.656C22.032 176.392 21.624 174.112 20.808 172.816C20.04 171.472 18.816 170.8 17.136 170.8C15.984 170.8 15.072 171.184 14.4 171.952C13.728 172.672 13.296 173.944 13.104 175.768L12.96 176.56C12.864 178.624 12.36 180.136 11.448 181.096C10.536 182.056 9.408 182.536 8.064 182.536C6.816 182.536 5.784 182.152 4.968 181.384C4.152 180.616 3.744 179.584 3.744 178.288C3.744 176.32 4.416 174.664 5.76 173.32C7.152 171.976 8.976 170.968 11.232 170.296C13.488 169.624 15.936 169.288 18.576 169.288C22.848 169.288 26.136 170.344 28.44 172.456C30.792 174.52 31.968 177.904 31.968 182.608V198.52C31.968 200.68 32.976 201.76 34.992 201.76H36.576L37.224 202.336C36.312 203.488 35.304 204.376 34.2 205C33.144 205.624 31.632 205.936 29.664 205.936C27.552 205.936 25.872 205.456 24.624 204.496C23.424 203.488 22.632 202.168 22.248 200.536C20.808 202.072 19.32 203.392 17.784 204.496C16.296 205.552 14.352 206.08 11.952 206.08ZM16.344 201.688C17.304 201.688 18.192 201.472 19.008 201.04C19.872 200.56 20.88 199.84 22.032 198.88V186.784C21.552 186.88 21.072 186.976 20.592 187.072C20.112 187.168 19.56 187.264 18.936 187.36C16.728 187.936 14.952 188.92 13.608 190.312C12.312 191.656 11.664 193.48 11.664 195.784C11.664 197.752 12.12 199.24 13.032 200.248C13.944 201.208 15.048 201.688 16.344 201.688ZM50.4638 205.936L38.2958 205V204.28L39.0158 204.136C40.8878 203.704 41.8238 202.504 41.8238 200.536V162.016C41.8238 161.008 41.6558 160.24 41.3198 159.712C41.0318 159.184 40.4078 158.824 39.4478 158.632L38.4398 158.344V157.624L51.2558 154.528L52.1198 155.176L51.8318 165.328V172.6C53.4158 171.496 55.1438 170.68 57.0158 170.152C58.8878 169.576 60.7838 169.288 62.7038 169.288C65.4398 169.288 67.8638 169.936 69.9758 171.232C72.0878 172.48 73.7438 174.448 74.9438 177.136C76.1918 179.776 76.8158 183.184 76.8158 187.36C76.8158 191.536 76.1198 195.016 74.7278 197.8C73.3838 200.536 71.5598 202.6 69.2558 203.992C66.9998 205.384 64.5038 206.08 61.7678 206.08C59.9918 206.08 58.1918 205.84 56.3678 205.36C54.5918 204.88 53.0078 204.208 51.6158 203.344L50.4638 205.936ZM58.1678 203.632C59.7038 203.632 61.0478 203.152 62.1998 202.192C63.3518 201.232 64.2638 199.6 64.9358 197.296C65.6078 194.944 65.9438 191.728 65.9438 187.648C65.9438 183.568 65.6318 180.424 65.0078 178.216C64.3838 176.008 63.4958 174.472 62.3438 173.608C61.2398 172.744 59.8958 172.312 58.3118 172.312C56.0558 172.312 53.9678 172.936 52.0478 174.184V201.832C52.9598 202.408 53.8958 202.864 54.8558 203.2C55.8158 203.488 56.9198 203.632 58.1678 203.632ZM91.8899 206.08C89.5379 206.08 87.4259 205.792 85.5539 205.216C83.6819 204.688 81.9539 204.016 80.3699 203.2L80.4419 194.632H81.1619L83.6099 198.952C84.6659 200.872 85.8179 202.312 87.0659 203.272C88.3619 204.184 89.9939 204.64 91.9619 204.64C94.2659 204.64 96.1139 204.136 97.5059 203.128C98.9459 202.072 99.6659 200.68 99.6659 198.952C99.6659 197.368 99.1619 196.072 98.1539 195.064C97.1459 194.056 95.2739 193.144 92.5379 192.328L89.5139 191.392C86.5859 190.528 84.2819 189.184 82.6019 187.36C80.9219 185.536 80.0819 183.304 80.0819 180.664C80.0819 177.496 81.3299 174.808 83.8259 172.6C86.3219 170.392 89.8979 169.288 94.5539 169.288C96.4259 169.288 98.1779 169.504 99.8099 169.936C101.49 170.32 103.098 170.92 104.634 171.736L104.202 179.512H103.482L100.962 175.048C100.05 173.464 99.1379 172.36 98.2259 171.736C97.3619 171.064 96.0419 170.728 94.2659 170.728C92.6339 170.728 91.0979 171.184 89.6579 172.096C88.2179 173.008 87.4979 174.304 87.4979 175.984C87.4979 177.616 88.0979 178.912 89.2979 179.872C90.5459 180.832 92.3699 181.72 94.7699 182.536L98.0099 183.472C101.466 184.528 103.938 185.992 105.426 187.864C106.914 189.688 107.658 191.896 107.658 194.488C107.658 197.992 106.266 200.8 103.482 202.912C100.746 205.024 96.8819 206.08 91.8899 206.08ZM128.455 206.08C124.807 206.08 121.639 205.336 118.951 203.848C116.263 202.312 114.175 200.152 112.687 197.368C111.247 194.584 110.527 191.32 110.527 187.576C110.527 183.832 111.295 180.592 112.831 177.856C114.415 175.12 116.551 173.008 119.239 171.52C121.975 170.032 125.047 169.288 128.455 169.288C131.863 169.288 134.911 170.032 137.599 171.52C140.287 172.96 142.399 175.048 143.935 177.784C145.519 180.52 146.311 183.784 146.311 187.576C146.311 191.368 145.567 194.656 144.079 197.44C142.639 200.176 140.575 202.312 137.887 203.848C135.247 205.336 132.103 206.08 128.455 206.08ZM128.455 204.64C130.135 204.64 131.479 204.16 132.487 203.2C133.495 202.24 134.215 200.536 134.647 198.088C135.127 195.64 135.367 192.184 135.367 187.72C135.367 183.208 135.127 179.728 134.647 177.28C134.215 174.832 133.495 173.128 132.487 172.168C131.479 171.208 130.135 170.728 128.455 170.728C126.775 170.728 125.407 171.208 124.351 172.168C123.343 173.128 122.599 174.832 122.119 177.28C121.687 179.728 121.471 183.208 121.471 187.72C121.471 192.184 121.687 195.64 122.119 198.088C122.599 200.536 123.343 202.24 124.351 203.2C125.407 204.16 126.775 204.64 128.455 204.64ZM148.855 205V204.28L149.719 203.992C151.447 203.416 152.311 202.216 152.311 200.392V161.872C152.311 160.912 152.119 160.192 151.735 159.712C151.351 159.184 150.679 158.8 149.719 158.56L148.783 158.344V157.624L161.959 154.528L162.823 155.176L162.535 165.256V189.88C162.535 191.656 162.535 193.432 162.535 195.208C162.583 196.936 162.607 198.664 162.607 200.392C162.607 201.352 162.799 202.144 163.183 202.768C163.567 203.344 164.215 203.776 165.127 204.064L166.063 204.28V205H148.855ZM181.437 206.08C179.565 206.08 177.837 205.72 176.253 205C174.717 204.28 173.493 203.128 172.581 201.544C171.717 199.912 171.309 197.776 171.357 195.136L171.573 176.632C171.573 175.528 171.381 174.736 170.997 174.256C170.613 173.776 170.013 173.44 169.197 173.248L168.333 172.96V172.24L181.221 169.72L181.941 170.44L181.581 180.664V198.016C181.581 199.552 182.013 200.68 182.877 201.4C183.789 202.12 184.917 202.48 186.261 202.48C187.605 202.48 188.805 202.288 189.861 201.904C190.917 201.52 191.973 200.944 193.029 200.176L193.317 176.704C193.317 175.6 193.149 174.832 192.813 174.4C192.477 173.92 191.853 173.584 190.941 173.392L190.221 173.176V172.456L202.821 169.72L203.541 170.44L203.325 180.664V200.176C203.325 201.232 203.469 202.048 203.757 202.624C204.045 203.2 204.669 203.68 205.629 204.064L206.349 204.28V205L193.749 205.72L193.101 201.472C191.517 202.768 189.789 203.872 187.917 204.784C186.093 205.648 183.933 206.08 181.437 206.08ZM222.383 206.08C219.311 206.08 216.911 205.312 215.183 203.776C213.503 202.24 212.663 199.792 212.663 196.432V171.808H207.695V171.088L209.423 170.8C210.911 170.464 212.183 169.984 213.239 169.36C214.343 168.736 215.423 167.896 216.479 166.84L222.383 160.288H223.103L222.887 170.368H230.951V171.808H222.815V197.728C222.815 199.408 223.175 200.68 223.895 201.544C224.663 202.408 225.623 202.84 226.775 202.84C227.783 202.84 228.671 202.6 229.439 202.12C230.207 201.592 230.975 200.896 231.743 200.032L232.463 200.752C231.503 202.384 230.183 203.68 228.503 204.64C226.823 205.6 224.783 206.08 222.383 206.08ZM252.026 169.288C255.146 169.288 257.81 169.936 260.018 171.232C262.226 172.48 263.906 174.208 265.058 176.416C266.258 178.576 266.858 181.048 266.858 183.832C266.858 184.36 266.834 184.912 266.786 185.488C266.738 186.016 266.642 186.496 266.498 186.928H245.042C245.09 192.112 246.002 195.856 247.778 198.16C249.602 200.416 252.29 201.544 255.842 201.544C258.242 201.544 260.186 201.16 261.674 200.392C263.162 199.624 264.554 198.496 265.85 197.008L266.57 197.656C265.082 200.296 263.09 202.36 260.594 203.848C258.146 205.336 255.194 206.08 251.738 206.08C248.33 206.08 245.306 205.36 242.666 203.92C240.026 202.432 237.962 200.32 236.474 197.584C234.986 194.848 234.242 191.584 234.242 187.792C234.242 183.856 235.106 180.52 236.834 177.784C238.562 175 240.77 172.888 243.458 171.448C246.194 170.008 249.05 169.288 252.026 169.288ZM251.81 170.728C250.418 170.728 249.218 171.16 248.21 172.024C247.25 172.84 246.482 174.328 245.906 176.488C245.378 178.6 245.09 181.6 245.042 185.488H257.354C257.834 180.256 257.642 176.488 256.778 174.184C255.914 171.88 254.258 170.728 251.81 170.728ZM268.983 205V204.28L269.847 203.992C271.575 203.416 272.439 202.216 272.439 200.392V161.872C272.439 160.912 272.247 160.192 271.863 159.712C271.479 159.184 270.807 158.8 269.847 158.56L268.911 158.344V157.624L282.087 154.528L282.951 155.176L282.663 165.256V189.88C282.663 191.656 282.663 193.432 282.663 195.208C282.711 196.936 282.735 198.664 282.735 200.392C282.735 201.352 282.927 202.144 283.311 202.768C283.695 203.344 284.343 203.776 285.255 204.064L286.191 204.28V205H268.983ZM294.736 222.28C292.816 222.28 291.28 221.8 290.128 220.84C289.024 219.88 288.472 218.656 288.472 217.168C288.472 215.824 288.952 214.744 289.912 213.928C290.872 213.112 291.952 212.704 293.152 212.704C294.352 212.704 295.36 212.944 296.176 213.424C296.992 213.952 297.712 214.696 298.336 215.656L298.84 216.232C299.896 217.672 300.952 217.648 302.008 216.16C302.44 215.44 302.92 214.48 303.448 213.28C304.024 212.128 304.672 210.568 305.392 208.6L291.424 175.192C291.088 174.28 290.728 173.56 290.344 173.032C289.96 172.456 289.336 171.976 288.472 171.592L287.176 171.088V170.368H305.104V171.016L303.664 171.592C302.608 171.928 302.056 172.48 302.008 173.248C302.008 173.968 302.2 174.88 302.584 175.984L310.072 195.424L317.2 175.768C317.584 174.664 317.728 173.752 317.632 173.032C317.536 172.264 316.936 171.736 315.832 171.448L314.32 171.088V170.368H324.328V171.088L322.744 171.592C321.64 171.928 320.872 172.408 320.44 173.032C320.008 173.656 319.6 174.52 319.216 175.624L307.624 207.232C305.752 212.272 303.88 216.04 302.008 218.536C300.136 221.032 297.712 222.28 294.736 222.28ZM341.429 205V204.28L342.365 204.064C343.277 203.824 343.997 203.416 344.525 202.84C345.053 202.216 345.317 201.424 345.317 200.464C345.317 198.688 345.317 196.936 345.317 195.208C345.365 193.432 345.389 191.656 345.389 189.88V171.808H341.357V171.016L342.941 170.728C343.901 170.632 344.597 170.296 345.029 169.72C345.461 169.144 345.773 168.352 345.965 167.344C346.445 165.472 347.141 163.84 348.053 162.448C349.013 161.008 350.093 159.688 351.293 158.488C353.117 156.76 355.037 155.56 357.053 154.888C359.117 154.168 361.133 153.808 363.101 153.808C365.021 153.808 366.773 154.216 368.357 155.032C369.941 155.8 370.733 157.096 370.733 158.92C370.733 160.216 370.349 161.248 369.581 162.016C368.813 162.736 367.733 163.096 366.341 163.096C365.189 163.096 364.133 162.784 363.173 162.16C362.213 161.536 361.277 160.432 360.365 158.848L359.357 157.624C358.829 156.952 358.301 156.64 357.773 156.688C357.245 156.688 356.861 157.072 356.621 157.84C356.285 159.52 356.021 161.488 355.829 163.744C355.685 166 355.613 168.208 355.613 170.368H363.677V171.808H355.613V200.32C355.613 202.144 356.573 203.32 358.493 203.848L360.293 204.28V205H341.429ZM365.411 205V204.28L366.491 203.992C367.451 203.704 368.099 203.272 368.435 202.696C368.819 202.12 369.011 201.376 369.011 200.464V177.928C369.011 176.872 368.819 176.104 368.435 175.624C368.099 175.096 367.451 174.736 366.491 174.544L365.411 174.256V173.536L377.795 169.36L378.515 170.08L379.163 176.272V176.848C379.835 175.504 380.699 174.28 381.755 173.176C382.859 172.024 384.059 171.088 385.355 170.368C386.699 169.648 388.019 169.288 389.315 169.288C391.139 169.288 392.531 169.792 393.491 170.8C394.451 171.808 394.931 173.08 394.931 174.616C394.931 176.248 394.451 177.52 393.491 178.432C392.579 179.296 391.475 179.728 390.179 179.728C388.163 179.728 386.387 178.72 384.851 176.704L384.707 176.56C384.227 175.888 383.675 175.528 383.051 175.48C382.427 175.384 381.851 175.672 381.323 176.344C380.843 176.776 380.435 177.304 380.099 177.928C379.811 178.504 379.523 179.176 379.235 179.944V200.032C379.235 201.952 380.075 203.152 381.755 203.632L384.059 204.28V205H365.411ZM413.585 169.288C416.705 169.288 419.369 169.936 421.577 171.232C423.785 172.48 425.465 174.208 426.617 176.416C427.817 178.576 428.417 181.048 428.417 183.832C428.417 184.36 428.393 184.912 428.345 185.488C428.297 186.016 428.201 186.496 428.057 186.928H406.601C406.649 192.112 407.561 195.856 409.337 198.16C411.161 200.416 413.849 201.544 417.401 201.544C419.801 201.544 421.745 201.16 423.233 200.392C424.721 199.624 426.113 198.496 427.409 197.008L428.129 197.656C426.641 200.296 424.649 202.36 422.153 203.848C419.705 205.336 416.753 206.08 413.297 206.08C409.889 206.08 406.865 205.36 404.225 203.92C401.585 202.432 399.521 200.32 398.033 197.584C396.545 194.848 395.801 191.584 395.801 187.792C395.801 183.856 396.665 180.52 398.393 177.784C400.121 175 402.329 172.888 405.017 171.448C407.753 170.008 410.609 169.288 413.585 169.288ZM413.369 170.728C411.977 170.728 410.777 171.16 409.769 172.024C408.809 172.84 408.041 174.328 407.465 176.488C406.937 178.6 406.649 181.6 406.601 185.488H418.913C419.393 180.256 419.201 176.488 418.337 174.184C417.473 171.88 415.817 170.728 413.369 170.728ZM449.524 169.288C452.644 169.288 455.308 169.936 457.516 171.232C459.724 172.48 461.404 174.208 462.556 176.416C463.756 178.576 464.356 181.048 464.356 183.832C464.356 184.36 464.332 184.912 464.284 185.488C464.236 186.016 464.14 186.496 463.996 186.928H442.54C442.588 192.112 443.5 195.856 445.276 198.16C447.1 200.416 449.788 201.544 453.34 201.544C455.74 201.544 457.684 201.16 459.172 200.392C460.66 199.624 462.052 198.496 463.348 197.008L464.068 197.656C462.58 200.296 460.588 202.36 458.092 203.848C455.644 205.336 452.692 206.08 449.236 206.08C445.828 206.08 442.804 205.36 440.164 203.92C437.524 202.432 435.46 200.32 433.972 197.584C432.484 194.848 431.74 191.584 431.74 187.792C431.74 183.856 432.604 180.52 434.332 177.784C436.06 175 438.268 172.888 440.956 171.448C443.692 170.008 446.548 169.288 449.524 169.288ZM449.308 170.728C447.916 170.728 446.716 171.16 445.708 172.024C444.748 172.84 443.98 174.328 443.404 176.488C442.876 178.6 442.588 181.6 442.54 185.488H454.852C455.332 180.256 455.14 176.488 454.276 174.184C453.412 171.88 451.756 170.728 449.308 170.728ZM475.836 206.08C474.108 206.08 472.644 205.48 471.444 204.28C470.244 203.08 469.644 201.64 469.644 199.96C469.644 198.28 470.244 196.816 471.444 195.568C472.644 194.32 474.108 193.696 475.836 193.696C477.564 193.696 479.028 194.32 480.228 195.568C481.428 196.816 482.028 198.28 482.028 199.96C482.028 201.64 481.428 203.08 480.228 204.28C479.028 205.48 477.564 206.08 475.836 206.08Z" fill="#36536B"/>
<g filter="url(#filter0_d_0_4871)">
<rect y="264" width="445" height="48" rx="24" fill="#FBFCFE"/>
</g>
<path opacity="0.5" d="M28.215 294V283.155H35.6625L35.655 285H30.4125V287.632H34.965V289.44H30.3975V292.132L35.7375 292.14V294H28.215ZM37.3711 294V286.245H39.5236V287.34C39.6436 287.15 39.7986 286.967 39.9886 286.792C40.1836 286.612 40.4286 286.465 40.7236 286.35C41.0186 286.235 41.3686 286.177 41.7736 286.177C42.2486 286.177 42.6911 286.27 43.1011 286.455C43.5161 286.64 43.8511 286.932 44.1061 287.332C44.3611 287.727 44.4886 288.245 44.4886 288.885V294H42.2986V289.155C42.2986 288.735 42.1736 288.42 41.9236 288.21C41.6736 288 41.3686 287.895 41.0086 287.895C40.7686 287.895 40.5361 287.937 40.3111 288.022C40.0911 288.107 39.9111 288.235 39.7711 288.405C39.6311 288.575 39.5611 288.785 39.5611 289.035V294H37.3711ZM50.6361 287.767H48.9111L48.9261 291.9C48.9261 292.09 48.9486 292.232 48.9936 292.327C49.0436 292.417 49.1186 292.477 49.2186 292.507C49.3236 292.532 49.4561 292.545 49.6161 292.545H50.6586V293.895C50.5586 293.94 50.4011 293.982 50.1861 294.023C49.9761 294.063 49.6811 294.083 49.3011 294.083C48.6211 294.083 48.0936 293.995 47.7186 293.82C47.3486 293.645 47.0911 293.4 46.9461 293.085C46.8011 292.77 46.7286 292.405 46.7286 291.99V287.767H45.4686V286.245H46.8036L47.3511 283.905H48.9111V286.237H50.6361V287.767ZM53.8049 290.625C53.7999 291.02 53.8624 291.365 53.9924 291.66C54.1224 291.95 54.3099 292.175 54.5549 292.335C54.8049 292.49 55.1049 292.567 55.4549 292.567C55.8299 292.567 56.1574 292.487 56.4374 292.327C56.7224 292.167 56.9199 291.905 57.0299 291.54H59.0024C58.9174 292.09 58.6974 292.56 58.3424 292.95C57.9924 293.34 57.5674 293.637 57.0674 293.842C56.5674 294.048 56.0474 294.15 55.5074 294.15C54.7424 294.15 54.0674 293.99 53.4824 293.67C52.9024 293.345 52.4499 292.887 52.1249 292.297C51.7999 291.707 51.6374 291.012 51.6374 290.213C51.6374 289.437 51.7849 288.74 52.0799 288.12C52.3749 287.495 52.8024 287.002 53.3624 286.642C53.9274 286.277 54.6049 286.095 55.3949 286.095C56.1849 286.095 56.8474 286.262 57.3824 286.597C57.9224 286.927 58.3274 287.39 58.5974 287.985C58.8724 288.575 59.0099 289.257 59.0099 290.032V290.625H53.8049ZM53.7974 289.32H56.9624C56.9624 289.01 56.9049 288.725 56.7899 288.465C56.6749 288.205 56.4999 288 56.2649 287.85C56.0349 287.7 55.7449 287.625 55.3949 287.625C55.0549 287.625 54.7649 287.707 54.5249 287.872C54.2899 288.032 54.1099 288.242 53.9849 288.502C53.8599 288.762 53.7974 289.035 53.7974 289.32ZM60.5303 294V286.245H62.6378V288.082C62.7628 287.687 62.9378 287.342 63.1628 287.047C63.3928 286.747 63.6703 286.515 63.9953 286.35C64.3203 286.18 64.6878 286.095 65.0978 286.095C65.1678 286.095 65.2328 286.1 65.2928 286.11C65.3578 286.115 65.4053 286.125 65.4353 286.14V288.225C65.3903 288.205 65.3353 288.192 65.2703 288.187C65.2103 288.182 65.1553 288.177 65.1053 288.172C64.6753 288.137 64.3078 288.15 64.0028 288.21C63.6978 288.27 63.4503 288.372 63.2603 288.517C63.0703 288.662 62.9328 288.84 62.8478 289.05C62.7628 289.26 62.7203 289.495 62.7203 289.755V294H60.5303ZM71.5148 290.625C71.5098 291.02 71.5723 291.365 71.7023 291.66C71.8323 291.95 72.0198 292.175 72.2648 292.335C72.5148 292.49 72.8148 292.567 73.1648 292.567C73.5398 292.567 73.8673 292.487 74.1473 292.327C74.4323 292.167 74.6298 291.905 74.7398 291.54H76.7123C76.6273 292.09 76.4073 292.56 76.0523 292.95C75.7023 293.34 75.2773 293.637 74.7773 293.842C74.2773 294.048 73.7573 294.15 73.2173 294.15C72.4523 294.15 71.7773 293.99 71.1923 293.67C70.6123 293.345 70.1598 292.887 69.8348 292.297C69.5098 291.707 69.3473 291.012 69.3473 290.213C69.3473 289.437 69.4948 288.74 69.7898 288.12C70.0848 287.495 70.5123 287.002 71.0723 286.642C71.6373 286.277 72.3148 286.095 73.1048 286.095C73.8948 286.095 74.5573 286.262 75.0923 286.597C75.6323 286.927 76.0373 287.39 76.3073 287.985C76.5823 288.575 76.7198 289.257 76.7198 290.032V290.625H71.5148ZM71.5073 289.32H74.6723C74.6723 289.01 74.6148 288.725 74.4998 288.465C74.3848 288.205 74.2098 288 73.9748 287.85C73.7448 287.7 73.4548 287.625 73.1048 287.625C72.7648 287.625 72.4748 287.707 72.2348 287.872C71.9998 288.032 71.8198 288.242 71.6948 288.502C71.5698 288.762 71.5073 289.035 71.5073 289.32ZM78.2402 294V286.245H80.3852V287.34C80.6202 287 80.9352 286.707 81.3302 286.463C81.7302 286.217 82.2327 286.095 82.8377 286.095C83.1027 286.095 83.3727 286.142 83.6477 286.237C83.9227 286.332 84.1802 286.472 84.4202 286.657C84.6652 286.837 84.8627 287.065 85.0127 287.34C85.2627 286.985 85.5902 286.69 85.9952 286.455C86.4052 286.215 86.8602 286.095 87.3602 286.095C87.6502 286.095 87.9427 286.142 88.2377 286.237C88.5377 286.332 88.8127 286.487 89.0627 286.702C89.3127 286.917 89.5127 287.205 89.6627 287.565C89.8177 287.92 89.8952 288.36 89.8952 288.885V294H87.7052V289.155C87.7052 288.845 87.6427 288.597 87.5177 288.412C87.3977 288.222 87.2427 288.087 87.0527 288.007C86.8677 287.922 86.6702 287.88 86.4602 287.88C86.2652 287.88 86.0677 287.92 85.8677 288C85.6677 288.075 85.4977 288.197 85.3577 288.367C85.2177 288.537 85.1477 288.76 85.1477 289.035V294H82.9652V288.96C82.9652 288.725 82.9027 288.527 82.7777 288.367C82.6527 288.207 82.4952 288.087 82.3052 288.007C82.1202 287.922 81.9302 287.88 81.7352 287.88C81.5352 287.88 81.3352 287.922 81.1352 288.007C80.9352 288.087 80.7677 288.215 80.6327 288.39C80.4977 288.56 80.4302 288.775 80.4302 289.035V294H78.2402ZM93.8643 294.15C93.3693 294.15 92.9243 294.058 92.5293 293.872C92.1343 293.687 91.8218 293.42 91.5918 293.07C91.3618 292.715 91.2468 292.285 91.2468 291.78C91.2468 290.93 91.5643 290.285 92.1993 289.845C92.8343 289.4 93.8368 289.17 95.2068 289.155L96.1743 289.14V288.675C96.1743 288.32 96.0693 288.047 95.8593 287.857C95.6543 287.662 95.3343 287.567 94.8993 287.572C94.5793 287.577 94.2743 287.652 93.9843 287.797C93.6993 287.942 93.5043 288.195 93.3993 288.555H91.5768C91.6068 287.995 91.7693 287.535 92.0643 287.175C92.3593 286.81 92.7593 286.54 93.2643 286.365C93.7743 286.185 94.3518 286.095 94.9968 286.095C95.7918 286.095 96.4293 286.195 96.9093 286.395C97.3893 286.59 97.7368 286.872 97.9518 287.242C98.1668 287.607 98.2743 288.042 98.2743 288.547V294H96.4443L96.2643 292.665C95.9993 293.225 95.6668 293.612 95.2668 293.827C94.8718 294.043 94.4043 294.15 93.8643 294.15ZM94.5993 292.71C94.7993 292.71 94.9918 292.675 95.1768 292.605C95.3668 292.53 95.5343 292.432 95.6793 292.312C95.8293 292.187 95.9493 292.047 96.0393 291.892C96.1293 291.737 96.1743 291.577 96.1743 291.412V290.265L95.3868 290.28C95.0218 290.285 94.6818 290.33 94.3668 290.415C94.0518 290.495 93.7968 290.627 93.6018 290.812C93.4118 290.997 93.3168 291.247 93.3168 291.562C93.3168 291.922 93.4418 292.205 93.6918 292.41C93.9418 292.61 94.2443 292.71 94.5993 292.71ZM102.418 286.245V294H100.325V286.245H102.418ZM102.44 283.162V285.135H100.31V283.162H102.44ZM106.921 294.135C106.351 294.135 105.899 294.068 105.564 293.932C105.229 293.797 104.981 293.62 104.821 293.4C104.661 293.175 104.559 292.927 104.514 292.657C104.469 292.382 104.446 292.105 104.446 291.825V282.855H106.591V291.555C106.591 291.84 106.651 292.072 106.771 292.252C106.896 292.427 107.129 292.535 107.469 292.575L107.836 292.597V293.947C107.686 293.997 107.534 294.04 107.379 294.075C107.224 294.115 107.071 294.135 106.921 294.135ZM114.753 294.15C114.258 294.15 113.813 294.058 113.418 293.872C113.023 293.687 112.71 293.42 112.48 293.07C112.25 292.715 112.135 292.285 112.135 291.78C112.135 290.93 112.453 290.285 113.088 289.845C113.723 289.4 114.725 289.17 116.095 289.155L117.063 289.14V288.675C117.063 288.32 116.958 288.047 116.748 287.857C116.543 287.662 116.223 287.567 115.788 287.572C115.468 287.577 115.163 287.652 114.873 287.797C114.588 287.942 114.393 288.195 114.288 288.555H112.465C112.495 287.995 112.658 287.535 112.953 287.175C113.248 286.81 113.648 286.54 114.153 286.365C114.663 286.185 115.24 286.095 115.885 286.095C116.68 286.095 117.318 286.195 117.798 286.395C118.278 286.59 118.625 286.872 118.84 287.242C119.055 287.607 119.163 288.042 119.163 288.547V294H117.333L117.153 292.665C116.888 293.225 116.555 293.612 116.155 293.827C115.76 294.043 115.293 294.15 114.753 294.15ZM115.488 292.71C115.688 292.71 115.88 292.675 116.065 292.605C116.255 292.53 116.423 292.432 116.568 292.312C116.718 292.187 116.838 292.047 116.928 291.892C117.018 291.737 117.063 291.577 117.063 291.412V290.265L116.275 290.28C115.91 290.285 115.57 290.33 115.255 290.415C114.94 290.495 114.685 290.627 114.49 290.812C114.3 290.997 114.205 291.247 114.205 291.562C114.205 291.922 114.33 292.205 114.58 292.41C114.83 292.61 115.133 292.71 115.488 292.71ZM123.982 294.15C122.942 294.15 122.132 293.792 121.552 293.077C120.972 292.357 120.682 291.357 120.682 290.077C120.682 289.267 120.799 288.565 121.034 287.97C121.269 287.375 121.617 286.915 122.077 286.59C122.537 286.26 123.099 286.095 123.764 286.095C124.044 286.095 124.304 286.127 124.544 286.192C124.789 286.252 125.012 286.337 125.212 286.447C125.412 286.557 125.587 286.685 125.737 286.83C125.887 286.975 126.009 287.13 126.104 287.295V282.855H128.302V294H126.712L126.464 292.41C126.394 292.625 126.297 292.835 126.172 293.04C126.047 293.245 125.887 293.432 125.692 293.602C125.497 293.767 125.257 293.9 124.972 294C124.692 294.1 124.362 294.15 123.982 294.15ZM124.462 292.575C125.012 292.575 125.422 292.382 125.692 291.997C125.967 291.612 126.104 290.962 126.104 290.047C126.099 289.517 126.037 289.077 125.917 288.727C125.797 288.377 125.617 288.117 125.377 287.947C125.142 287.772 124.842 287.685 124.477 287.685C124.002 287.685 123.607 287.867 123.292 288.232C122.977 288.592 122.819 289.197 122.819 290.047C122.819 290.912 122.967 291.55 123.262 291.96C123.557 292.37 123.957 292.575 124.462 292.575ZM133.064 294.15C132.024 294.15 131.214 293.792 130.634 293.077C130.054 292.357 129.764 291.357 129.764 290.077C129.764 289.267 129.881 288.565 130.116 287.97C130.351 287.375 130.699 286.915 131.159 286.59C131.619 286.26 132.181 286.095 132.846 286.095C133.126 286.095 133.386 286.127 133.626 286.192C133.871 286.252 134.094 286.337 134.294 286.447C134.494 286.557 134.669 286.685 134.819 286.83C134.969 286.975 135.091 287.13 135.186 287.295V282.855H137.384V294H135.794L135.546 292.41C135.476 292.625 135.379 292.835 135.254 293.04C135.129 293.245 134.969 293.432 134.774 293.602C134.579 293.767 134.339 293.9 134.054 294C133.774 294.1 133.444 294.15 133.064 294.15ZM133.544 292.575C134.094 292.575 134.504 292.382 134.774 291.997C135.049 291.612 135.186 290.962 135.186 290.047C135.181 289.517 135.119 289.077 134.999 288.727C134.879 288.377 134.699 288.117 134.459 287.947C134.224 287.772 133.924 287.685 133.559 287.685C133.084 287.685 132.689 287.867 132.374 288.232C132.059 288.592 131.901 289.197 131.901 290.047C131.901 290.912 132.049 291.55 132.344 291.96C132.639 292.37 133.039 292.575 133.544 292.575ZM139.31 294V286.245H141.417V288.082C141.542 287.687 141.717 287.342 141.942 287.047C142.172 286.747 142.45 286.515 142.775 286.35C143.1 286.18 143.467 286.095 143.877 286.095C143.947 286.095 144.012 286.1 144.072 286.11C144.137 286.115 144.185 286.125 144.215 286.14V288.225C144.17 288.205 144.115 288.192 144.05 288.187C143.99 288.182 143.935 288.177 143.885 288.172C143.455 288.137 143.087 288.15 142.782 288.21C142.477 288.27 142.23 288.372 142.04 288.517C141.85 288.662 141.712 288.84 141.627 289.05C141.542 289.26 141.5 289.495 141.5 289.755V294H139.31ZM147.159 290.625C147.154 291.02 147.217 291.365 147.347 291.66C147.477 291.95 147.664 292.175 147.909 292.335C148.159 292.49 148.459 292.567 148.809 292.567C149.184 292.567 149.512 292.487 149.792 292.327C150.077 292.167 150.274 291.905 150.384 291.54H152.357C152.272 292.09 152.052 292.56 151.697 292.95C151.347 293.34 150.922 293.637 150.422 293.842C149.922 294.048 149.402 294.15 148.862 294.15C148.097 294.15 147.422 293.99 146.837 293.67C146.257 293.345 145.804 292.887 145.479 292.297C145.154 291.707 144.992 291.012 144.992 290.213C144.992 289.437 145.139 288.74 145.434 288.12C145.729 287.495 146.157 287.002 146.717 286.642C147.282 286.277 147.959 286.095 148.749 286.095C149.539 286.095 150.202 286.262 150.737 286.597C151.277 286.927 151.682 287.39 151.952 287.985C152.227 288.575 152.364 289.257 152.364 290.032V290.625H147.159ZM147.152 289.32H150.317C150.317 289.01 150.259 288.725 150.144 288.465C150.029 288.205 149.854 288 149.619 287.85C149.389 287.7 149.099 287.625 148.749 287.625C148.409 287.625 148.119 287.707 147.879 287.872C147.644 288.032 147.464 288.242 147.339 288.502C147.214 288.762 147.152 289.035 147.152 289.32ZM156.923 294.15C156.383 294.15 155.863 294.063 155.363 293.887C154.863 293.707 154.44 293.427 154.095 293.047C153.75 292.662 153.53 292.165 153.435 291.555H155.333C155.398 291.83 155.515 292.047 155.685 292.207C155.86 292.367 156.058 292.482 156.278 292.552C156.498 292.617 156.708 292.65 156.908 292.65C157.328 292.65 157.665 292.585 157.92 292.455C158.18 292.32 158.31 292.115 158.31 291.84C158.31 291.63 158.233 291.462 158.078 291.337C157.928 291.212 157.678 291.117 157.328 291.052L155.963 290.767C155.278 290.622 154.728 290.377 154.313 290.032C153.898 289.682 153.685 289.187 153.675 288.547C153.675 288.082 153.798 287.665 154.043 287.295C154.293 286.925 154.66 286.632 155.145 286.417C155.63 286.202 156.225 286.095 156.93 286.095C157.885 286.095 158.648 286.305 159.218 286.725C159.793 287.145 160.085 287.737 160.095 288.502H158.265C158.21 288.202 158.06 287.972 157.815 287.812C157.575 287.647 157.273 287.565 156.908 287.565C156.528 287.565 156.215 287.632 155.97 287.767C155.725 287.902 155.603 288.107 155.603 288.382C155.603 288.587 155.703 288.75 155.903 288.87C156.103 288.985 156.413 289.085 156.833 289.17L158.093 289.455C158.528 289.56 158.88 289.705 159.15 289.89C159.425 290.07 159.638 290.267 159.788 290.482C159.938 290.697 160.04 290.915 160.095 291.135C160.155 291.35 160.185 291.545 160.185 291.72C160.185 292.235 160.048 292.675 159.773 293.04C159.498 293.4 159.115 293.675 158.625 293.865C158.135 294.055 157.568 294.15 156.923 294.15ZM164.687 294.15C164.147 294.15 163.627 294.063 163.127 293.887C162.627 293.707 162.204 293.427 161.859 293.047C161.514 292.662 161.294 292.165 161.199 291.555H163.097C163.162 291.83 163.279 292.047 163.449 292.207C163.624 292.367 163.822 292.482 164.042 292.552C164.262 292.617 164.472 292.65 164.672 292.65C165.092 292.65 165.429 292.585 165.684 292.455C165.944 292.32 166.074 292.115 166.074 291.84C166.074 291.63 165.997 291.462 165.842 291.337C165.692 291.212 165.442 291.117 165.092 291.052L163.727 290.767C163.042 290.622 162.492 290.377 162.077 290.032C161.662 289.682 161.449 289.187 161.439 288.547C161.439 288.082 161.562 287.665 161.807 287.295C162.057 286.925 162.424 286.632 162.909 286.417C163.394 286.202 163.989 286.095 164.694 286.095C165.649 286.095 166.412 286.305 166.982 286.725C167.557 287.145 167.849 287.737 167.859 288.502H166.029C165.974 288.202 165.824 287.972 165.579 287.812C165.339 287.647 165.037 287.565 164.672 287.565C164.292 287.565 163.979 287.632 163.734 287.767C163.489 287.902 163.367 288.107 163.367 288.382C163.367 288.587 163.467 288.75 163.667 288.87C163.867 288.985 164.177 289.085 164.597 289.17L165.857 289.455C166.292 289.56 166.644 289.705 166.914 289.89C167.189 290.07 167.402 290.267 167.552 290.482C167.702 290.697 167.804 290.915 167.859 291.135C167.919 291.35 167.949 291.545 167.949 291.72C167.949 292.235 167.812 292.675 167.537 293.04C167.262 293.4 166.879 293.675 166.389 293.865C165.899 294.055 165.332 294.15 164.687 294.15Z" fill="#36536B"/>
<g clip-path="url(#clip1_0_4871)">
<rect x="272" y="264" width="173" height="48" rx="24" fill="#BA4270"/>
<path d="M303.788 294.15C303.253 294.15 302.728 294.083 302.213 293.947C301.698 293.812 301.228 293.61 300.803 293.34C300.378 293.07 300.025 292.732 299.745 292.327C299.47 291.922 299.305 291.447 299.25 290.902H301.493C301.568 291.232 301.71 291.51 301.92 291.735C302.13 291.96 302.395 292.132 302.715 292.252C303.035 292.372 303.39 292.432 303.78 292.432C304.18 292.432 304.545 292.382 304.875 292.282C305.205 292.182 305.47 292.032 305.67 291.832C305.87 291.627 305.97 291.372 305.97 291.067C305.97 290.792 305.888 290.567 305.723 290.392C305.563 290.217 305.345 290.075 305.07 289.965C304.795 289.855 304.483 289.765 304.133 289.695L302.258 289.312C301.438 289.157 300.788 288.832 300.308 288.337C299.828 287.837 299.58 287.172 299.565 286.342C299.56 285.662 299.74 285.075 300.105 284.58C300.475 284.08 300.975 283.695 301.605 283.425C302.24 283.155 302.95 283.02 303.735 283.02C304.67 283.02 305.455 283.167 306.09 283.462C306.73 283.752 307.215 284.147 307.545 284.647C307.88 285.142 308.053 285.695 308.063 286.305H305.865C305.825 285.925 305.71 285.622 305.52 285.397C305.33 285.172 305.085 285.01 304.785 284.91C304.49 284.81 304.153 284.76 303.773 284.76C303.483 284.76 303.218 284.792 302.978 284.857C302.743 284.922 302.543 285.015 302.378 285.135C302.213 285.25 302.085 285.387 301.995 285.547C301.905 285.707 301.86 285.887 301.86 286.087C301.86 286.402 301.965 286.657 302.175 286.852C302.385 287.047 302.778 287.207 303.353 287.332L305.213 287.715C305.878 287.845 306.405 288.037 306.795 288.292C307.19 288.547 307.485 288.835 307.68 289.155C307.88 289.475 308.01 289.802 308.07 290.137C308.135 290.467 308.168 290.772 308.168 291.052C308.168 291.637 307.983 292.165 307.613 292.635C307.248 293.1 306.738 293.47 306.083 293.745C305.428 294.015 304.663 294.15 303.788 294.15ZM312.957 286.095C313.607 286.095 314.167 286.227 314.637 286.492C315.112 286.757 315.485 287.115 315.755 287.565C316.03 288.015 316.187 288.517 316.227 289.072H314.405C314.37 288.867 314.297 288.665 314.187 288.465C314.077 288.26 313.922 288.092 313.722 287.962C313.522 287.827 313.272 287.76 312.972 287.76C312.462 287.76 312.047 287.957 311.727 288.352C311.412 288.742 311.255 289.337 311.255 290.137C311.255 290.892 311.41 291.492 311.72 291.937C312.03 292.377 312.462 292.597 313.017 292.597C313.312 292.597 313.557 292.525 313.752 292.38C313.952 292.235 314.107 292.062 314.217 291.862C314.327 291.657 314.397 291.467 314.427 291.292H316.205C316.17 291.827 316.015 292.312 315.74 292.747C315.465 293.177 315.09 293.52 314.615 293.775C314.145 294.025 313.592 294.15 312.957 294.15C312.237 294.15 311.595 293.99 311.03 293.67C310.465 293.35 310.02 292.892 309.695 292.297C309.375 291.697 309.215 290.982 309.215 290.152C309.215 289.352 309.37 288.647 309.68 288.037C309.99 287.427 310.425 286.952 310.985 286.612C311.55 286.267 312.207 286.095 312.957 286.095ZM317.62 294V282.855H319.795V287.362C319.92 287.182 320.077 287.005 320.267 286.83C320.457 286.65 320.695 286.5 320.98 286.38C321.265 286.26 321.612 286.2 322.022 286.2C322.517 286.2 322.967 286.297 323.372 286.492C323.782 286.682 324.11 286.96 324.355 287.325C324.605 287.69 324.73 288.135 324.73 288.66V294H322.532V288.982C322.532 288.632 322.405 288.365 322.15 288.18C321.9 287.99 321.595 287.895 321.235 287.895C321 287.895 320.772 287.937 320.552 288.022C320.332 288.107 320.152 288.237 320.012 288.412C319.877 288.582 319.81 288.795 319.81 289.05V294H317.62ZM328.196 290.625C328.191 291.02 328.254 291.365 328.384 291.66C328.514 291.95 328.701 292.175 328.946 292.335C329.196 292.49 329.496 292.567 329.846 292.567C330.221 292.567 330.549 292.487 330.829 292.327C331.114 292.167 331.311 291.905 331.421 291.54H333.394C333.309 292.09 333.089 292.56 332.734 292.95C332.384 293.34 331.959 293.637 331.459 293.842C330.959 294.048 330.439 294.15 329.899 294.15C329.134 294.15 328.459 293.99 327.874 293.67C327.294 293.345 326.841 292.887 326.516 292.297C326.191 291.707 326.029 291.012 326.029 290.213C326.029 289.437 326.176 288.74 326.471 288.12C326.766 287.495 327.194 287.002 327.754 286.642C328.319 286.277 328.996 286.095 329.786 286.095C330.576 286.095 331.239 286.262 331.774 286.597C332.314 286.927 332.719 287.39 332.989 287.985C333.264 288.575 333.401 289.257 333.401 290.032V290.625H328.196ZM328.189 289.32H331.354C331.354 289.01 331.296 288.725 331.181 288.465C331.066 288.205 330.891 288 330.656 287.85C330.426 287.7 330.136 287.625 329.786 287.625C329.446 287.625 329.156 287.707 328.916 287.872C328.681 288.032 328.501 288.242 328.376 288.502C328.251 288.762 328.189 289.035 328.189 289.32ZM337.686 294.15C336.646 294.15 335.836 293.792 335.256 293.077C334.676 292.357 334.386 291.357 334.386 290.077C334.386 289.267 334.504 288.565 334.739 287.97C334.974 287.375 335.321 286.915 335.781 286.59C336.241 286.26 336.804 286.095 337.469 286.095C337.749 286.095 338.009 286.127 338.249 286.192C338.494 286.252 338.716 286.337 338.916 286.447C339.116 286.557 339.291 286.685 339.441 286.83C339.591 286.975 339.714 287.13 339.809 287.295V282.855H342.006V294H340.416L340.169 292.41C340.099 292.625 340.001 292.835 339.876 293.04C339.751 293.245 339.591 293.432 339.396 293.602C339.201 293.767 338.961 293.9 338.676 294C338.396 294.1 338.066 294.15 337.686 294.15ZM338.166 292.575C338.716 292.575 339.126 292.382 339.396 291.997C339.671 291.612 339.809 290.962 339.809 290.047C339.804 289.517 339.741 289.077 339.621 288.727C339.501 288.377 339.321 288.117 339.081 287.947C338.846 287.772 338.546 287.685 338.181 287.685C337.706 287.685 337.311 287.867 336.996 288.232C336.681 288.592 336.524 289.197 336.524 290.047C336.524 290.912 336.671 291.55 336.966 291.96C337.261 292.37 337.661 292.575 338.166 292.575ZM346.63 294.15C346.27 294.15 345.915 294.095 345.565 293.985C345.22 293.875 344.905 293.712 344.62 293.497C344.335 293.282 344.105 293.017 343.93 292.702C343.76 292.387 343.675 292.022 343.675 291.607V286.245H345.865V291.33C345.865 291.69 345.983 291.985 346.218 292.215C346.453 292.445 346.798 292.56 347.253 292.56C347.683 292.56 348.023 292.45 348.273 292.23C348.528 292.005 348.655 291.692 348.655 291.292V286.245H350.823V294H349.173L348.918 292.462C348.828 292.917 348.658 293.267 348.408 293.512C348.163 293.752 347.88 293.917 347.56 294.008C347.245 294.103 346.935 294.15 346.63 294.15ZM355.009 294.135C354.439 294.135 353.987 294.068 353.652 293.932C353.317 293.797 353.069 293.62 352.909 293.4C352.749 293.175 352.647 292.927 352.602 292.657C352.557 292.382 352.534 292.105 352.534 291.825V282.855H354.679V291.555C354.679 291.84 354.739 292.072 354.859 292.252C354.984 292.427 355.217 292.535 355.557 292.575L355.924 292.597V293.947C355.774 293.997 355.622 294.04 355.467 294.075C355.312 294.115 355.159 294.135 355.009 294.135ZM358.994 290.625C358.989 291.02 359.052 291.365 359.182 291.66C359.312 291.95 359.499 292.175 359.744 292.335C359.994 292.49 360.294 292.567 360.644 292.567C361.019 292.567 361.347 292.487 361.627 292.327C361.912 292.167 362.109 291.905 362.219 291.54H364.192C364.107 292.09 363.887 292.56 363.532 292.95C363.182 293.34 362.757 293.637 362.257 293.842C361.757 294.048 361.237 294.15 360.697 294.15C359.932 294.15 359.257 293.99 358.672 293.67C358.092 293.345 357.639 292.887 357.314 292.297C356.989 291.707 356.827 291.012 356.827 290.213C356.827 289.437 356.974 288.74 357.269 288.12C357.564 287.495 357.992 287.002 358.552 286.642C359.117 286.277 359.794 286.095 360.584 286.095C361.374 286.095 362.037 286.262 362.572 286.597C363.112 286.927 363.517 287.39 363.787 287.985C364.062 288.575 364.199 289.257 364.199 290.032V290.625H358.994ZM358.987 289.32H362.152C362.152 289.01 362.094 288.725 361.979 288.465C361.864 288.205 361.689 288 361.454 287.85C361.224 287.7 360.934 287.625 360.584 287.625C360.244 287.625 359.954 287.707 359.714 287.872C359.479 288.032 359.299 288.242 359.174 288.502C359.049 288.762 358.987 289.035 358.987 289.32ZM370.874 294.15C370.379 294.15 369.934 294.058 369.539 293.872C369.144 293.687 368.831 293.42 368.601 293.07C368.371 292.715 368.256 292.285 368.256 291.78C368.256 290.93 368.574 290.285 369.209 289.845C369.844 289.4 370.846 289.17 372.216 289.155L373.184 289.14V288.675C373.184 288.32 373.079 288.047 372.869 287.857C372.664 287.662 372.344 287.567 371.909 287.572C371.589 287.577 371.284 287.652 370.994 287.797C370.709 287.942 370.514 288.195 370.409 288.555H368.586C368.616 287.995 368.779 287.535 369.074 287.175C369.369 286.81 369.769 286.54 370.274 286.365C370.784 286.185 371.361 286.095 372.006 286.095C372.801 286.095 373.439 286.195 373.919 286.395C374.399 286.59 374.746 286.872 374.961 287.242C375.176 287.607 375.284 288.042 375.284 288.547V294H373.454L373.274 292.665C373.009 293.225 372.676 293.612 372.276 293.827C371.881 294.043 371.414 294.15 370.874 294.15ZM371.609 292.71C371.809 292.71 372.001 292.675 372.186 292.605C372.376 292.53 372.544 292.432 372.689 292.312C372.839 292.187 372.959 292.047 373.049 291.892C373.139 291.737 373.184 291.577 373.184 291.412V290.265L372.396 290.28C372.031 290.285 371.691 290.33 371.376 290.415C371.061 290.495 370.806 290.627 370.611 290.812C370.421 290.997 370.326 291.247 370.326 291.562C370.326 291.922 370.451 292.205 370.701 292.41C370.951 292.61 371.254 292.71 371.609 292.71ZM380.448 283.155C380.503 283.155 380.655 283.155 380.905 283.155C381.16 283.155 381.458 283.155 381.798 283.155C382.143 283.155 382.485 283.157 382.825 283.162C383.17 283.162 383.458 283.165 383.688 283.17C385.003 283.2 386.075 283.435 386.905 283.875C387.735 284.315 388.343 284.93 388.728 285.72C389.118 286.51 389.313 287.445 389.313 288.525C389.313 289.65 389.108 290.622 388.698 291.442C388.288 292.257 387.66 292.887 386.815 293.332C385.975 293.777 384.908 294 383.613 294H380.448V283.155ZM382.653 284.925V292.23H383.658C384.278 292.23 384.84 292.11 385.345 291.87C385.855 291.63 386.263 291.237 386.568 290.692C386.873 290.147 387.025 289.42 387.025 288.51C387.025 287.665 386.89 286.98 386.62 286.455C386.35 285.925 385.965 285.537 385.465 285.292C384.965 285.047 384.373 284.925 383.688 284.925H382.653ZM392.651 290.625C392.646 291.02 392.708 291.365 392.838 291.66C392.968 291.95 393.156 292.175 393.401 292.335C393.651 292.49 393.951 292.567 394.301 292.567C394.676 292.567 395.003 292.487 395.283 292.327C395.568 292.167 395.766 291.905 395.876 291.54H397.848C397.763 292.09 397.543 292.56 397.188 292.95C396.838 293.34 396.413 293.637 395.913 293.842C395.413 294.048 394.893 294.15 394.353 294.15C393.588 294.15 392.913 293.99 392.328 293.67C391.748 293.345 391.296 292.887 390.971 292.297C390.646 291.707 390.483 291.012 390.483 290.213C390.483 289.437 390.631 288.74 390.926 288.12C391.221 287.495 391.648 287.002 392.208 286.642C392.773 286.277 393.451 286.095 394.241 286.095C395.031 286.095 395.693 286.262 396.228 286.597C396.768 286.927 397.173 287.39 397.443 287.985C397.718 288.575 397.856 289.257 397.856 290.032V290.625H392.651ZM392.643 289.32H395.808C395.808 289.01 395.751 288.725 395.636 288.465C395.521 288.205 395.346 288 395.111 287.85C394.881 287.7 394.591 287.625 394.241 287.625C393.901 287.625 393.611 287.707 393.371 287.872C393.136 288.032 392.956 288.242 392.831 288.502C392.706 288.762 392.643 289.035 392.643 289.32ZM399.261 294V286.245H401.406V287.34C401.641 287 401.956 286.707 402.351 286.463C402.751 286.217 403.253 286.095 403.858 286.095C404.123 286.095 404.393 286.142 404.668 286.237C404.943 286.332 405.201 286.472 405.441 286.657C405.686 286.837 405.883 287.065 406.033 287.34C406.283 286.985 406.611 286.69 407.016 286.455C407.426 286.215 407.881 286.095 408.381 286.095C408.671 286.095 408.963 286.142 409.258 286.237C409.558 286.332 409.833 286.487 410.083 286.702C410.333 286.917 410.533 287.205 410.683 287.565C410.838 287.92 410.916 288.36 410.916 288.885V294H408.726V289.155C408.726 288.845 408.663 288.597 408.538 288.412C408.418 288.222 408.263 288.087 408.073 288.007C407.888 287.922 407.691 287.88 407.481 287.88C407.286 287.88 407.088 287.92 406.888 288C406.688 288.075 406.518 288.197 406.378 288.367C406.238 288.537 406.168 288.76 406.168 289.035V294H403.986V288.96C403.986 288.725 403.923 288.527 403.798 288.367C403.673 288.207 403.516 288.087 403.326 288.007C403.141 287.922 402.951 287.88 402.756 287.88C402.556 287.88 402.356 287.922 402.156 288.007C401.956 288.087 401.788 288.215 401.653 288.39C401.518 288.56 401.451 288.775 401.451 289.035V294H399.261ZM415.908 294.15C415.148 294.15 414.485 293.988 413.92 293.662C413.36 293.337 412.925 292.877 412.615 292.282C412.31 291.687 412.158 290.982 412.158 290.167C412.158 289.352 412.31 288.64 412.615 288.03C412.925 287.42 413.36 286.945 413.92 286.605C414.485 286.265 415.15 286.095 415.915 286.095C416.68 286.095 417.343 286.262 417.903 286.597C418.463 286.927 418.895 287.397 419.2 288.007C419.505 288.617 419.658 289.337 419.658 290.167C419.658 290.947 419.508 291.637 419.208 292.237C418.913 292.832 418.485 293.3 417.925 293.64C417.37 293.98 416.698 294.15 415.908 294.15ZM415.915 292.522C416.3 292.522 416.61 292.41 416.845 292.185C417.08 291.96 417.25 291.665 417.355 291.3C417.465 290.93 417.52 290.527 417.52 290.092C417.52 289.682 417.47 289.295 417.37 288.93C417.275 288.565 417.11 288.27 416.875 288.045C416.64 287.82 416.32 287.707 415.915 287.707C415.53 287.707 415.218 287.815 414.978 288.03C414.743 288.24 414.57 288.527 414.46 288.892C414.35 289.252 414.295 289.652 414.295 290.092C414.295 290.497 414.345 290.887 414.445 291.262C414.545 291.632 414.713 291.935 414.948 292.17C415.183 292.405 415.505 292.522 415.915 292.522Z" fill="#FBFCFE"/>
</g>
<path d="M35.67 336.997H29.82V342H28.4325V331.155H29.82V335.775H35.67V331.155H37.0575V342H35.67V336.997ZM41.7329 342.15C41.2329 342.15 40.7904 342.063 40.4054 341.887C40.0204 341.707 39.7179 341.45 39.4979 341.115C39.2829 340.78 39.1754 340.375 39.1754 339.9C39.1754 339.04 39.4754 338.4 40.0754 337.98C40.6754 337.56 41.6379 337.335 42.9629 337.305L44.3504 337.267V336.66C44.3504 336.185 44.2079 335.81 43.9229 335.535C43.6379 335.255 43.1954 335.115 42.5954 335.115C42.1504 335.12 41.7579 335.225 41.4179 335.43C41.0829 335.635 40.8654 335.97 40.7654 336.435H39.5429C39.5729 335.93 39.7154 335.505 39.9704 335.16C40.2254 334.81 40.5804 334.545 41.0354 334.365C41.4954 334.185 42.0379 334.095 42.6629 334.095C43.3379 334.095 43.8979 334.19 44.3429 334.38C44.7929 334.57 45.1279 334.85 45.3479 335.22C45.5729 335.59 45.6854 336.045 45.6854 336.585V342H44.5004L44.4029 340.545C44.1029 341.15 43.7204 341.57 43.2554 341.805C42.7954 342.035 42.2879 342.15 41.7329 342.15ZM42.1529 341.152C42.4129 341.152 42.6704 341.105 42.9254 341.01C43.1854 340.915 43.4229 340.787 43.6379 340.627C43.8529 340.462 44.0229 340.28 44.1479 340.08C44.2779 339.875 44.3454 339.665 44.3504 339.45V338.122L43.1954 338.145C42.6054 338.155 42.1104 338.215 41.7104 338.325C41.3154 338.435 41.0179 338.607 40.8179 338.842C40.6229 339.077 40.5254 339.385 40.5254 339.765C40.5254 340.2 40.6754 340.54 40.9754 340.785C41.2804 341.03 41.6729 341.152 42.1529 341.152ZM53.8657 334.245L51.0682 342H49.8082L47.0032 334.245H48.3082L50.3707 340.26H50.4982L52.5682 334.245H53.8657ZM56.0613 338.445C56.0613 338.935 56.1413 339.38 56.3013 339.78C56.4663 340.175 56.7138 340.49 57.0438 340.725C57.3788 340.96 57.7963 341.077 58.2963 341.077C58.7913 341.077 59.2163 340.962 59.5713 340.732C59.9313 340.502 60.1613 340.17 60.2613 339.735H61.5738C61.4788 340.26 61.2688 340.702 60.9438 341.062C60.6188 341.422 60.2263 341.695 59.7663 341.88C59.3063 342.06 58.8263 342.15 58.3263 342.15C57.6013 342.15 56.9638 341.993 56.4138 341.677C55.8638 341.362 55.4338 340.91 55.1238 340.32C54.8138 339.73 54.6588 339.022 54.6588 338.197C54.6588 337.382 54.7988 336.667 55.0788 336.052C55.3588 335.437 55.7638 334.957 56.2938 334.612C56.8288 334.267 57.4713 334.095 58.2213 334.095C58.9513 334.095 59.5688 334.252 60.0738 334.567C60.5788 334.882 60.9613 335.327 61.2213 335.902C61.4863 336.472 61.6188 337.15 61.6188 337.935V338.445H56.0613ZM56.0688 337.507H60.2838C60.2838 337.062 60.2088 336.662 60.0588 336.307C59.9088 335.947 59.6788 335.665 59.3688 335.46C59.0638 335.25 58.6788 335.145 58.2138 335.145C57.7288 335.145 57.3263 335.262 57.0063 335.497C56.6913 335.727 56.4538 336.025 56.2938 336.39C56.1388 336.75 56.0638 337.122 56.0688 337.507ZM69.0376 342.15C68.5376 342.15 68.0951 342.063 67.7101 341.887C67.3251 341.707 67.0226 341.45 66.8026 341.115C66.5876 340.78 66.4801 340.375 66.4801 339.9C66.4801 339.04 66.7801 338.4 67.3801 337.98C67.9801 337.56 68.9426 337.335 70.2676 337.305L71.6551 337.267V336.66C71.6551 336.185 71.5126 335.81 71.2276 335.535C70.9426 335.255 70.5001 335.115 69.9001 335.115C69.4551 335.12 69.0626 335.225 68.7226 335.43C68.3876 335.635 68.1701 335.97 68.0701 336.435H66.8476C66.8776 335.93 67.0201 335.505 67.2751 335.16C67.5301 334.81 67.8851 334.545 68.3401 334.365C68.8001 334.185 69.3426 334.095 69.9676 334.095C70.6426 334.095 71.2026 334.19 71.6476 334.38C72.0976 334.57 72.4326 334.85 72.6526 335.22C72.8776 335.59 72.9901 336.045 72.9901 336.585V342H71.8051L71.7076 340.545C71.4076 341.15 71.0251 341.57 70.5601 341.805C70.1001 342.035 69.5926 342.15 69.0376 342.15ZM69.4576 341.152C69.7176 341.152 69.9751 341.105 70.2301 341.01C70.4901 340.915 70.7276 340.787 70.9426 340.627C71.1576 340.462 71.3276 340.28 71.4526 340.08C71.5826 339.875 71.6501 339.665 71.6551 339.45V338.122L70.5001 338.145C69.9101 338.155 69.4151 338.215 69.0151 338.325C68.6201 338.435 68.3226 338.607 68.1226 338.842C67.9276 339.077 67.8301 339.385 67.8301 339.765C67.8301 340.2 67.9801 340.54 68.2801 340.785C68.5851 341.03 68.9776 341.152 69.4576 341.152ZM75.3594 342V334.245H76.7019V335.37C76.8269 335.155 76.9994 334.952 77.2194 334.762C77.4444 334.572 77.7144 334.42 78.0294 334.305C78.3494 334.19 78.7169 334.132 79.1319 334.132C79.6219 334.132 80.0719 334.23 80.4819 334.425C80.8969 334.62 81.2269 334.925 81.4719 335.34C81.7219 335.75 81.8469 336.28 81.8469 336.93V342H80.4594V337.065C80.4594 336.46 80.2994 336.012 79.9794 335.722C79.6644 335.427 79.2544 335.28 78.7494 335.28C78.3994 335.28 78.0719 335.337 77.7669 335.452C77.4619 335.562 77.2144 335.732 77.0244 335.962C76.8344 336.187 76.7394 336.472 76.7394 336.817V342H75.3594ZM84.5326 344.475C84.0776 344.475 83.7651 344.443 83.5951 344.378C83.4251 344.313 83.3401 344.28 83.3401 344.28V343.38L84.1276 343.395C84.4176 343.405 84.6576 343.385 84.8476 343.335C85.0376 343.285 85.1901 343.218 85.3051 343.133C85.4201 343.048 85.5076 342.953 85.5676 342.848C85.6326 342.743 85.6851 342.643 85.7251 342.548L85.9951 341.812L82.9651 334.245H84.3676L86.6551 340.23L88.9276 334.245H90.2851L87.0151 342.585C86.8151 343.075 86.5901 343.458 86.3401 343.733C86.0951 344.008 85.8201 344.2 85.5151 344.31C85.2151 344.42 84.8876 344.475 84.5326 344.475ZM101.589 344.415H100.194V340.597C100.109 340.762 99.9987 340.935 99.8637 341.115C99.7337 341.295 99.5687 341.465 99.3687 341.625C99.1737 341.78 98.9412 341.905 98.6712 342C98.4062 342.1 98.0987 342.15 97.7487 342.15C97.1287 342.15 96.5712 342.008 96.0762 341.722C95.5862 341.432 95.1987 340.982 94.9137 340.372C94.6337 339.762 94.4937 338.977 94.4937 338.017C94.4937 337.192 94.6137 336.487 94.8537 335.902C95.0987 335.317 95.4562 334.87 95.9262 334.56C96.3962 334.25 96.9687 334.095 97.6437 334.095C97.9987 334.095 98.3137 334.142 98.5887 334.237C98.8637 334.332 99.1062 334.455 99.3162 334.605C99.5262 334.755 99.7012 334.917 99.8412 335.092C99.9862 335.267 100.101 335.435 100.186 335.595L100.209 334.245H101.589V344.415ZM98.0112 341.07C98.4962 341.07 98.9012 340.935 99.2262 340.665C99.5512 340.395 99.7962 340.032 99.9612 339.577C100.126 339.122 100.209 338.617 100.209 338.062C100.209 337.202 100.024 336.507 99.6537 335.977C99.2837 335.442 98.7362 335.175 98.0112 335.175C97.3762 335.175 96.8537 335.412 96.4437 335.887C96.0387 336.362 95.8362 337.087 95.8362 338.062C95.8362 338.997 96.0212 339.732 96.3912 340.267C96.7662 340.802 97.3062 341.07 98.0112 341.07ZM106.73 342.15C106.325 342.145 105.942 342.088 105.582 341.977C105.227 341.862 104.912 341.695 104.637 341.475C104.362 341.255 104.145 340.982 103.985 340.657C103.83 340.327 103.752 339.945 103.752 339.51V334.245H105.14V339.367C105.14 339.872 105.295 340.282 105.605 340.597C105.92 340.912 106.392 341.07 107.022 341.07C107.592 341.07 108.05 340.922 108.395 340.627C108.745 340.327 108.92 339.882 108.92 339.292V334.245H110.3V342H109.197L109.055 340.515C108.96 340.905 108.797 341.22 108.567 341.46C108.342 341.7 108.07 341.877 107.75 341.992C107.435 342.103 107.095 342.155 106.73 342.15ZM113.454 338.445C113.454 338.935 113.534 339.38 113.694 339.78C113.859 340.175 114.106 340.49 114.436 340.725C114.771 340.96 115.189 341.077 115.689 341.077C116.184 341.077 116.609 340.962 116.964 340.732C117.324 340.502 117.554 340.17 117.654 339.735H118.966C118.871 340.26 118.661 340.702 118.336 341.062C118.011 341.422 117.619 341.695 117.159 341.88C116.699 342.06 116.219 342.15 115.719 342.15C114.994 342.15 114.356 341.993 113.806 341.677C113.256 341.362 112.826 340.91 112.516 340.32C112.206 339.73 112.051 339.022 112.051 338.197C112.051 337.382 112.191 336.667 112.471 336.052C112.751 335.437 113.156 334.957 113.686 334.612C114.221 334.267 114.864 334.095 115.614 334.095C116.344 334.095 116.961 334.252 117.466 334.567C117.971 334.882 118.354 335.327 118.614 335.902C118.879 336.472 119.011 337.15 119.011 337.935V338.445H113.454ZM113.461 337.507H117.676C117.676 337.062 117.601 336.662 117.451 336.307C117.301 335.947 117.071 335.665 116.761 335.46C116.456 335.25 116.071 335.145 115.606 335.145C115.121 335.145 114.719 335.262 114.399 335.497C114.084 335.727 113.846 336.025 113.686 336.39C113.531 336.75 113.456 337.122 113.461 337.507ZM123.625 342.15C123.085 342.15 122.582 342.068 122.117 341.902C121.657 341.732 121.275 341.47 120.97 341.115C120.665 340.755 120.472 340.297 120.392 339.742H121.652C121.722 340.047 121.847 340.302 122.027 340.507C122.212 340.707 122.442 340.86 122.717 340.965C122.992 341.065 123.292 341.115 123.617 341.115C124.137 341.115 124.557 341.017 124.877 340.822C125.197 340.627 125.357 340.327 125.357 339.922C125.357 339.637 125.272 339.41 125.102 339.24C124.937 339.065 124.68 338.937 124.33 338.857L122.725 338.46C122.1 338.31 121.6 338.075 121.225 337.755C120.85 337.435 120.662 336.987 120.662 336.412C120.657 335.957 120.765 335.557 120.985 335.212C121.205 334.867 121.535 334.595 121.975 334.395C122.415 334.195 122.962 334.095 123.617 334.095C124.457 334.095 125.135 334.285 125.65 334.665C126.17 335.04 126.44 335.592 126.46 336.322H125.237C125.187 335.952 125.02 335.66 124.735 335.445C124.455 335.225 124.077 335.115 123.602 335.115C123.107 335.115 122.705 335.215 122.395 335.415C122.085 335.61 121.93 335.915 121.93 336.33C121.93 336.605 122.04 336.822 122.26 336.982C122.48 337.137 122.805 337.267 123.235 337.372L124.787 337.763C125.147 337.857 125.442 337.982 125.672 338.137C125.907 338.292 126.092 338.465 126.227 338.655C126.367 338.845 126.465 339.045 126.52 339.255C126.58 339.46 126.61 339.657 126.61 339.847C126.61 340.322 126.49 340.732 126.25 341.077C126.015 341.417 125.675 341.682 125.23 341.872C124.79 342.058 124.255 342.15 123.625 342.15ZM132.312 335.257H130.565V340.08C130.565 340.355 130.592 340.557 130.647 340.687C130.707 340.812 130.805 340.892 130.94 340.927C131.08 340.962 131.27 340.98 131.51 340.98H132.357V341.91C132.262 341.945 132.117 341.975 131.922 342C131.732 342.025 131.495 342.038 131.21 342.038C130.675 342.038 130.26 341.965 129.965 341.82C129.67 341.675 129.462 341.46 129.342 341.175C129.227 340.89 129.17 340.54 129.17 340.125V335.257H127.91V334.245H129.207L129.545 331.987H130.565V334.237H132.312V335.257ZM135.805 334.245V342H134.462V334.245H135.805ZM135.835 331.162V332.602H134.417V331.162H135.835ZM141.328 342.15C140.613 342.15 139.988 341.998 139.453 341.692C138.918 341.382 138.503 340.93 138.208 340.335C137.913 339.74 137.765 339.012 137.765 338.152C137.765 337.342 137.903 336.632 138.178 336.022C138.453 335.412 138.855 334.94 139.385 334.605C139.92 334.265 140.568 334.095 141.328 334.095C142.043 334.095 142.663 334.252 143.188 334.567C143.718 334.877 144.128 335.335 144.418 335.94C144.708 336.545 144.853 337.282 144.853 338.152C144.853 338.942 144.718 339.637 144.448 340.237C144.183 340.837 143.788 341.307 143.263 341.647C142.743 341.983 142.098 342.15 141.328 342.15ZM141.328 341.055C141.793 341.055 142.185 340.937 142.505 340.702C142.825 340.467 143.068 340.13 143.233 339.69C143.398 339.25 143.48 338.727 143.48 338.122C143.48 337.567 143.408 337.07 143.263 336.63C143.118 336.185 142.885 335.832 142.565 335.572C142.25 335.312 141.838 335.182 141.328 335.182C140.858 335.182 140.46 335.3 140.135 335.535C139.81 335.765 139.563 336.1 139.393 336.54C139.228 336.98 139.145 337.507 139.145 338.122C139.145 338.667 139.22 339.162 139.37 339.607C139.52 340.052 139.755 340.405 140.075 340.665C140.395 340.925 140.813 341.055 141.328 341.055ZM146.668 342V334.245H148.011V335.37C148.136 335.155 148.308 334.952 148.528 334.762C148.753 334.572 149.023 334.42 149.338 334.305C149.658 334.19 150.026 334.132 150.441 334.132C150.931 334.132 151.381 334.23 151.791 334.425C152.206 334.62 152.536 334.925 152.781 335.34C153.031 335.75 153.156 336.28 153.156 336.93V342H151.768V337.065C151.768 336.46 151.608 336.012 151.288 335.722C150.973 335.427 150.563 335.28 150.058 335.28C149.708 335.28 149.381 335.337 149.076 335.452C148.771 335.562 148.523 335.732 148.333 335.962C148.143 336.187 148.048 336.472 148.048 336.817V342H146.668ZM157.961 342.15C157.421 342.15 156.918 342.068 156.453 341.902C155.993 341.732 155.611 341.47 155.306 341.115C155.001 340.755 154.808 340.297 154.728 339.742H155.988C156.058 340.047 156.183 340.302 156.363 340.507C156.548 340.707 156.778 340.86 157.053 340.965C157.328 341.065 157.628 341.115 157.953 341.115C158.473 341.115 158.893 341.017 159.213 340.822C159.533 340.627 159.693 340.327 159.693 339.922C159.693 339.637 159.608 339.41 159.438 339.24C159.273 339.065 159.016 338.937 158.666 338.857L157.061 338.46C156.436 338.31 155.936 338.075 155.561 337.755C155.186 337.435 154.998 336.987 154.998 336.412C154.993 335.957 155.101 335.557 155.321 335.212C155.541 334.867 155.871 334.595 156.311 334.395C156.751 334.195 157.298 334.095 157.953 334.095C158.793 334.095 159.471 334.285 159.986 334.665C160.506 335.04 160.776 335.592 160.796 336.322H159.573C159.523 335.952 159.356 335.66 159.071 335.445C158.791 335.225 158.413 335.115 157.938 335.115C157.443 335.115 157.041 335.215 156.731 335.415C156.421 335.61 156.266 335.915 156.266 336.33C156.266 336.605 156.376 336.822 156.596 336.982C156.816 337.137 157.141 337.267 157.571 337.372L159.123 337.763C159.483 337.857 159.778 337.982 160.008 338.137C160.243 338.292 160.428 338.465 160.563 338.655C160.703 338.845 160.801 339.045 160.856 339.255C160.916 339.46 160.946 339.657 160.946 339.847C160.946 340.322 160.826 340.732 160.586 341.077C160.351 341.417 160.011 341.682 159.566 341.872C159.126 342.058 158.591 342.15 157.961 342.15ZM166.111 340.252V342H164.469V340.252H166.111ZM161.979 333.172C162.299 332.492 162.771 331.962 163.396 331.582C164.026 331.197 164.744 331.005 165.549 331.005C166.219 331.005 166.804 331.117 167.304 331.342C167.804 331.562 168.189 331.87 168.459 332.265C168.734 332.655 168.871 333.102 168.871 333.607C168.871 334.117 168.771 334.56 168.571 334.935C168.371 335.305 168.121 335.645 167.821 335.955C167.526 336.265 167.229 336.575 166.929 336.885C166.634 337.19 166.384 337.53 166.179 337.905C165.979 338.275 165.879 338.71 165.879 339.21H164.694C164.694 338.64 164.786 338.147 164.971 337.732C165.156 337.312 165.386 336.937 165.661 336.607C165.936 336.272 166.209 335.957 166.479 335.662C166.754 335.362 166.984 335.055 167.169 334.74C167.359 334.42 167.454 334.062 167.454 333.667C167.454 333.172 167.276 332.782 166.921 332.497C166.566 332.207 166.104 332.062 165.534 332.062C165.209 332.062 164.889 332.127 164.574 332.257C164.264 332.387 163.986 332.565 163.741 332.79C163.501 333.01 163.326 333.26 163.216 333.54L161.979 333.172ZM178.472 331.005C179.287 331.005 180.012 331.17 180.647 331.5C181.287 331.825 181.802 332.27 182.192 332.835C182.587 333.4 182.82 334.037 182.89 334.747H180.595C180.525 334.372 180.397 334.04 180.212 333.75C180.027 333.455 179.785 333.225 179.485 333.06C179.185 332.89 178.825 332.805 178.405 332.805C177.9 332.805 177.465 332.927 177.1 333.172C176.735 333.417 176.455 333.812 176.26 334.357C176.065 334.902 175.967 335.622 175.967 336.517C175.967 337.867 176.182 338.845 176.612 339.45C177.047 340.05 177.645 340.35 178.405 340.35C178.825 340.35 179.185 340.255 179.485 340.065C179.785 339.87 180.027 339.615 180.212 339.3C180.397 338.98 180.525 338.63 180.595 338.25H182.89C182.825 338.765 182.7 339.257 182.515 339.727C182.33 340.192 182.067 340.607 181.727 340.972C181.387 341.337 180.95 341.625 180.415 341.835C179.88 342.045 179.232 342.15 178.472 342.15C177.462 342.15 176.59 341.915 175.855 341.445C175.12 340.975 174.552 340.315 174.152 339.465C173.757 338.615 173.56 337.622 173.56 336.487C173.56 335.347 173.757 334.37 174.152 333.555C174.547 332.735 175.112 332.105 175.847 331.665C176.582 331.225 177.457 331.005 178.472 331.005ZM187.903 342.15C187.143 342.15 186.481 341.988 185.916 341.662C185.356 341.337 184.921 340.877 184.611 340.282C184.306 339.687 184.153 338.982 184.153 338.167C184.153 337.352 184.306 336.64 184.611 336.03C184.921 335.42 185.356 334.945 185.916 334.605C186.481 334.265 187.146 334.095 187.911 334.095C188.676 334.095 189.338 334.262 189.898 334.597C190.458 334.927 190.891 335.397 191.196 336.007C191.501 336.617 191.653 337.337 191.653 338.167C191.653 338.947 191.503 339.637 191.203 340.237C190.908 340.832 190.481 341.3 189.921 341.64C189.366 341.98 188.693 342.15 187.903 342.15ZM187.911 340.522C188.296 340.522 188.606 340.41 188.841 340.185C189.076 339.96 189.246 339.665 189.351 339.3C189.461 338.93 189.516 338.527 189.516 338.092C189.516 337.682 189.466 337.295 189.366 336.93C189.271 336.565 189.106 336.27 188.871 336.045C188.636 335.82 188.316 335.707 187.911 335.707C187.526 335.707 187.213 335.815 186.973 336.03C186.738 336.24 186.566 336.527 186.456 336.892C186.346 337.252 186.291 337.652 186.291 338.092C186.291 338.497 186.341 338.887 186.441 339.262C186.541 339.632 186.708 339.935 186.943 340.17C187.178 340.405 187.501 340.522 187.911 340.522ZM193.113 342V334.245H195.266V335.34C195.386 335.15 195.541 334.967 195.731 334.792C195.926 334.612 196.171 334.465 196.466 334.35C196.761 334.235 197.111 334.177 197.516 334.177C197.991 334.177 198.433 334.27 198.843 334.455C199.258 334.64 199.593 334.932 199.848 335.332C200.103 335.727 200.231 336.245 200.231 336.885V342H198.041V337.155C198.041 336.735 197.916 336.42 197.666 336.21C197.416 336 197.111 335.895 196.751 335.895C196.511 335.895 196.278 335.937 196.053 336.022C195.833 336.107 195.653 336.235 195.513 336.405C195.373 336.575 195.303 336.785 195.303 337.035V342H193.113ZM206.393 335.767H204.668L204.683 339.9C204.683 340.09 204.705 340.232 204.75 340.327C204.8 340.417 204.875 340.477 204.975 340.507C205.08 340.532 205.213 340.545 205.373 340.545H206.415V341.895C206.315 341.94 206.158 341.982 205.943 342.023C205.733 342.063 205.438 342.083 205.058 342.083C204.378 342.083 203.85 341.995 203.475 341.82C203.105 341.645 202.848 341.4 202.703 341.085C202.558 340.77 202.485 340.405 202.485 339.99V335.767H201.225V334.245H202.56L203.108 331.905H204.668V334.237H206.393V335.767ZM210.246 342.15C209.751 342.15 209.306 342.058 208.911 341.872C208.516 341.687 208.204 341.42 207.974 341.07C207.744 340.715 207.629 340.285 207.629 339.78C207.629 338.93 207.946 338.285 208.581 337.845C209.216 337.4 210.219 337.17 211.589 337.155L212.556 337.14V336.675C212.556 336.32 212.451 336.047 212.241 335.857C212.036 335.662 211.716 335.567 211.281 335.572C210.961 335.577 210.656 335.652 210.366 335.797C210.081 335.942 209.886 336.195 209.781 336.555H207.959C207.989 335.995 208.151 335.535 208.446 335.175C208.741 334.81 209.141 334.54 209.646 334.365C210.156 334.185 210.734 334.095 211.379 334.095C212.174 334.095 212.811 334.195 213.291 334.395C213.771 334.59 214.119 334.872 214.334 335.242C214.549 335.607 214.656 336.042 214.656 336.547V342H212.826L212.646 340.665C212.381 341.225 212.049 341.612 211.649 341.827C211.254 342.043 210.786 342.15 210.246 342.15ZM210.981 340.71C211.181 340.71 211.374 340.675 211.559 340.605C211.749 340.53 211.916 340.432 212.061 340.312C212.211 340.187 212.331 340.047 212.421 339.892C212.511 339.737 212.556 339.577 212.556 339.412V338.265L211.769 338.28C211.404 338.285 211.064 338.33 210.749 338.415C210.434 338.495 210.179 338.627 209.984 338.812C209.794 338.997 209.699 339.247 209.699 339.562C209.699 339.922 209.824 340.205 210.074 340.41C210.324 340.61 210.626 340.71 210.981 340.71ZM219.917 334.095C220.567 334.095 221.127 334.227 221.597 334.492C222.072 334.757 222.445 335.115 222.715 335.565C222.99 336.015 223.147 336.517 223.187 337.072H221.365C221.33 336.867 221.257 336.665 221.147 336.465C221.037 336.26 220.882 336.092 220.682 335.962C220.482 335.827 220.232 335.76 219.932 335.76C219.422 335.76 219.007 335.957 218.687 336.352C218.372 336.742 218.215 337.337 218.215 338.137C218.215 338.892 218.37 339.492 218.68 339.937C218.99 340.377 219.422 340.597 219.977 340.597C220.272 340.597 220.517 340.525 220.712 340.38C220.912 340.235 221.067 340.062 221.177 339.862C221.287 339.657 221.357 339.467 221.387 339.292H223.165C223.13 339.827 222.975 340.312 222.7 340.747C222.425 341.177 222.05 341.52 221.575 341.775C221.105 342.025 220.552 342.15 219.917 342.15C219.197 342.15 218.555 341.99 217.99 341.67C217.425 341.35 216.98 340.892 216.655 340.297C216.335 339.697 216.175 338.982 216.175 338.152C216.175 337.352 216.33 336.647 216.64 336.037C216.95 335.427 217.385 334.952 217.945 334.612C218.51 334.267 219.167 334.095 219.917 334.095ZM229.171 335.767H227.446L227.461 339.9C227.461 340.09 227.484 340.232 227.529 340.327C227.579 340.417 227.654 340.477 227.754 340.507C227.859 340.532 227.991 340.545 228.151 340.545H229.194V341.895C229.094 341.94 228.936 341.982 228.721 342.023C228.511 342.063 228.216 342.083 227.836 342.083C227.156 342.083 226.629 341.995 226.254 341.82C225.884 341.645 225.626 341.4 225.481 341.085C225.336 340.77 225.264 340.405 225.264 339.99V335.767H224.004V334.245H225.339L225.886 331.905H227.446V334.237H229.171V335.767ZM242.923 337.868C242.923 338.742 242.78 339.502 242.495 340.147C242.21 340.787 241.748 341.282 241.108 341.632C240.473 341.978 239.63 342.15 238.58 342.15C237.525 342.15 236.68 341.975 236.045 341.625C235.41 341.27 234.95 340.767 234.665 340.117C234.385 339.467 234.245 338.692 234.245 337.792V331.155H236.473V337.957C236.473 338.767 236.668 339.36 237.058 339.735C237.448 340.105 237.955 340.29 238.58 340.29C238.995 340.29 239.363 340.21 239.683 340.05C240.003 339.885 240.253 339.632 240.433 339.292C240.618 338.947 240.71 338.502 240.71 337.957V331.155H242.923V337.868ZM247.89 342.15C247.35 342.15 246.83 342.063 246.33 341.887C245.83 341.707 245.407 341.427 245.062 341.047C244.717 340.662 244.497 340.165 244.402 339.555H246.3C246.365 339.83 246.482 340.047 246.652 340.207C246.827 340.367 247.025 340.482 247.245 340.552C247.465 340.617 247.675 340.65 247.875 340.65C248.295 340.65 248.632 340.585 248.887 340.455C249.147 340.32 249.277 340.115 249.277 339.84C249.277 339.63 249.2 339.462 249.045 339.337C248.895 339.212 248.645 339.117 248.295 339.052L246.93 338.767C246.245 338.622 245.695 338.377 245.28 338.032C244.865 337.682 244.652 337.187 244.642 336.547C244.642 336.082 244.765 335.665 245.01 335.295C245.26 334.925 245.627 334.632 246.112 334.417C246.597 334.202 247.192 334.095 247.897 334.095C248.852 334.095 249.615 334.305 250.185 334.725C250.76 335.145 251.052 335.737 251.062 336.502H249.232C249.177 336.202 249.027 335.972 248.782 335.812C248.542 335.647 248.24 335.565 247.875 335.565C247.495 335.565 247.182 335.632 246.937 335.767C246.692 335.902 246.57 336.107 246.57 336.382C246.57 336.587 246.67 336.75 246.87 336.87C247.07 336.985 247.38 337.085 247.8 337.17L249.06 337.455C249.495 337.56 249.847 337.705 250.117 337.89C250.392 338.07 250.605 338.267 250.755 338.482C250.905 338.697 251.007 338.915 251.062 339.135C251.122 339.35 251.152 339.545 251.152 339.72C251.152 340.235 251.015 340.675 250.74 341.04C250.465 341.4 250.082 341.675 249.592 341.865C249.102 342.055 248.535 342.15 247.89 342.15Z" fill="#6C8294"/>
<path d="M172.84 345.3H251.745V346.35H172.84V345.3Z" fill="#6C8294"/>
</g>
<defs>
<filter id="filter0_d_0_4871" x="-5" y="259" width="475" height="78" filterUnits="userSpaceOnUse" color-interpolation-filters="sRGB">
<feFlood flood-opacity="0" result="BackgroundImageFix"/>
<feColorMatrix in="SourceAlpha" type="matrix" values="0 0 0 0 0 0 0 0 0 0 0 0 0 0 0 0 0 0 127 0" result="hardAlpha"/>
<feMorphology radius="10" operator="erode" in="SourceAlpha" result="effect1_dropShadow_0_4871"/>
<feOffset dx="10" dy="10"/>
<feGaussianBlur stdDeviation="12.5"/>
<feColorMatrix type="matrix" values="0 0 0 0 0.212302 0 0 0 0 0.32521 0 0 0 0 0.419299 0 0 0 0.25 0"/>
<feBlend mode="normal" in2="BackgroundImageFix" result="effect1_dropShadow_0_4871"/>
<feBlend mode="normal" in="SourceGraphic" in2="effect1_dropShadow_0_4871" result="shape"/>
</filter>
<clipPath id="clip0_0_4871">
<rect width="546" height="345" fill="white"/>
</clipPath>
<clipPath id="clip1_0_4871">
<rect width="173" height="48" fill="white" transform="translate(272 264)"/>
</clipPath>
</defs>
</svg>
