<svg width="89" height="30" viewBox="0 0 89 30" fill="none" xmlns="http://www.w3.org/2000/svg">
<path fill-rule="evenodd" clip-rule="evenodd" d="M88.6572 3.59007V0.294067H87.4412V3.59007H88.6572ZM4.544 28.9341V21.0941H4.608C5.16267 21.9047 5.872 22.5181 6.736 22.9341C7.6 23.3501 8.544 23.5581 9.568 23.5581C10.784 23.5581 11.8453 23.3234 12.752 22.8541C13.6587 22.3847 14.416 21.7554 15.024 20.9661C15.632 20.1767 16.0853 19.2701 16.384 18.2461C16.6827 17.2221 16.832 16.1554 16.832 15.0461C16.832 13.8727 16.6827 12.7474 16.384 11.6701C16.0853 10.5927 15.6267 9.64873 15.008 8.83807C14.3893 8.0274 13.6107 7.37673 12.672 6.88607C11.7333 6.3954 10.6133 6.15007 9.312 6.15007C8.288 6.15007 7.34933 6.35273 6.496 6.75807C5.64267 7.1634 4.93867 7.81407 4.384 8.71007H4.32V6.59807H0V28.9341H4.544ZM8.352 20.1661C7.62667 20.1661 7.008 20.0167 6.496 19.7181C5.984 19.4194 5.57333 19.0301 5.264 18.5501C4.95467 18.0701 4.73067 17.5101 4.592 16.8701C4.45333 16.2301 4.384 15.5794 4.384 14.9181C4.384 14.2354 4.448 13.5741 4.576 12.9341C4.704 12.2941 4.92267 11.7287 5.232 11.2381C5.54133 10.7474 5.94667 10.3474 6.448 10.0381C6.94933 9.72873 7.57333 9.57407 8.32 9.57407C9.04533 9.57407 9.65867 9.72873 10.16 10.0381C10.6613 10.3474 11.072 10.7527 11.392 11.2541C11.712 11.7554 11.9413 12.3261 12.08 12.9661C12.2187 13.6061 12.288 14.2567 12.288 14.9181C12.288 15.5794 12.224 16.2301 12.096 16.8701C11.968 17.5101 11.7493 18.0701 11.44 18.5501C11.1307 19.0301 10.7253 19.4194 10.224 19.7181C9.72267 20.0167 9.09867 20.1661 8.352 20.1661ZM27.2418 23.1101C26.2605 23.4087 25.2578 23.5581 24.2338 23.5581C23.4445 23.5581 22.7085 23.4621 22.0258 23.2701C21.3432 23.0781 20.7458 22.7794 20.2338 22.3741C19.7218 21.9687 19.3218 21.4567 19.0338 20.8381C18.7458 20.2194 18.6018 19.4834 18.6018 18.6301C18.6018 17.6914 18.7672 16.9181 19.0978 16.3101C19.4285 15.7021 19.8552 15.2167 20.3778 14.8541C20.9005 14.4914 21.4978 14.2194 22.1698 14.0381C22.8418 13.8567 23.5192 13.7127 24.2018 13.6061C24.8845 13.4994 25.5565 13.4141 26.2178 13.3501C26.8792 13.2861 27.4658 13.1901 27.9778 13.0621C28.4898 12.9341 28.8952 12.7474 29.1938 12.5021C29.4925 12.2567 29.6312 11.8994 29.6098 11.4301C29.6098 10.9394 29.5298 10.5501 29.3698 10.2621C29.2098 9.97407 28.9965 9.75007 28.7298 9.59007C28.4632 9.43007 28.1538 9.3234 27.8018 9.27007C27.4498 9.21673 27.0712 9.19007 26.6658 9.19007C25.7698 9.19007 25.0658 9.38207 24.5538 9.76607C24.0418 10.1501 23.7432 10.7901 23.6578 11.6861H19.1138C19.1778 10.6194 19.4445 9.73407 19.9138 9.03007C20.3832 8.32607 20.9805 7.76073 21.7058 7.33407C22.4312 6.9074 23.2472 6.6034 24.1538 6.42207C25.0605 6.24073 25.9725 6.15007 26.8898 6.15007C27.7218 6.15007 28.5645 6.20873 29.4178 6.32607C30.2712 6.4434 31.0498 6.67273 31.7538 7.01407C32.4578 7.3554 33.0338 7.83007 33.4818 8.43807C33.9298 9.04607 34.1538 9.8514 34.1538 10.8541V19.4621C34.1538 20.2087 34.1965 20.9234 34.2818 21.6061C34.3672 22.2887 34.5165 22.8007 34.7298 23.1421H30.1218C30.0365 22.8861 29.9672 22.6247 29.9138 22.3581C29.8605 22.0914 29.8232 21.8194 29.8018 21.5421C29.0765 22.2887 28.2232 22.8114 27.2418 23.1101ZM25.9298 20.5501C25.5672 20.5501 25.2152 20.5181 24.8738 20.4541C24.5325 20.3901 24.2338 20.2781 23.9778 20.1181C23.7218 19.9581 23.5192 19.7394 23.3698 19.4621C23.2205 19.1847 23.1458 18.8434 23.1458 18.4381C23.1458 18.0114 23.2205 17.6594 23.3698 17.3821C23.5192 17.1047 23.7165 16.8754 23.9618 16.6941C24.2072 16.5127 24.4952 16.3687 24.8258 16.2621C25.1565 16.1554 25.4925 16.0701 25.8338 16.0061C26.1965 15.9421 26.5592 15.8887 26.9218 15.8461C27.2845 15.8034 27.6312 15.7501 27.9618 15.6861C28.2925 15.6221 28.6018 15.5421 28.8898 15.4461C29.1778 15.3501 29.4178 15.2167 29.6098 15.0461V16.7421C29.6098 16.9981 29.5832 17.3394 29.5298 17.7661C29.4765 18.1927 29.3325 18.6141 29.0978 19.0301C28.8632 19.4461 28.5005 19.8034 28.0098 20.1021C27.5192 20.4007 26.8258 20.5501 25.9298 20.5501ZM43.5397 28.0701C42.665 28.6461 41.449 28.9341 39.8917 28.9341C39.4224 28.9341 38.9584 28.9181 38.4997 28.8861C38.041 28.8541 37.577 28.8167 37.1077 28.7741V25.0301C37.5344 25.0727 37.9717 25.1154 38.4197 25.1581C38.8677 25.2007 39.3157 25.2114 39.7637 25.1901C40.361 25.1261 40.8037 24.8914 41.0917 24.4861C41.3797 24.0807 41.5237 23.6327 41.5237 23.1421C41.5237 22.7794 41.4597 22.4381 41.3317 22.1181L35.5397 6.59807H40.3717L44.1157 17.9261H44.1797L47.7957 6.59807H52.4997L45.5877 25.1901C45.097 26.5341 44.4144 27.4941 43.5397 28.0701ZM58.5895 23.5261C59.3789 23.5261 60.1042 23.4301 60.7655 23.2381C61.4269 23.0461 62.0189 22.7794 62.5415 22.4381C63.0642 22.0967 63.5069 21.7074 63.8695 21.2701C64.2322 20.8327 64.5095 20.3687 64.7015 19.8781H64.7655V20.7421C64.7655 21.0834 64.7922 21.3981 64.8455 21.6861C64.8989 21.9741 65.0002 22.2247 65.1495 22.4381C65.2989 22.6514 65.5175 22.8221 65.8055 22.9501C66.0935 23.0781 66.4829 23.1421 66.9735 23.1421C67.3149 23.1421 67.6455 23.0994 67.9655 23.0141V21.9901C67.5815 22.0541 67.2829 22.0861 67.0695 22.0861C66.7922 22.0861 66.5789 22.0274 66.4295 21.9101C66.2802 21.7927 66.1735 21.6381 66.1095 21.4461C66.0455 21.2541 66.0082 21.0407 65.9975 20.8061C65.9869 20.5714 65.9815 20.3367 65.9815 20.1021V10.5341C65.9815 9.2754 65.5282 8.25673 64.6215 7.47807C63.7149 6.6994 62.2695 6.31007 60.2855 6.31007C58.3015 6.31007 56.7709 6.7634 55.6935 7.67007C54.6162 8.57673 54.0349 9.93673 53.9495 11.7501H55.1655C55.2509 10.2781 55.7469 9.1794 56.6535 8.45407C57.5602 7.72873 58.7495 7.36607 60.2215 7.36607C61.0535 7.36607 61.7575 7.4514 62.3335 7.62207C62.9095 7.79273 63.3789 8.0274 63.7415 8.32607C64.1042 8.62473 64.3709 8.96607 64.5415 9.35007C64.7122 9.73407 64.7975 10.1501 64.7975 10.5981C64.7975 11.1741 64.7655 11.6541 64.7015 12.0381C64.6375 12.4221 64.4775 12.7367 64.2215 12.9821C63.9655 13.2274 63.5869 13.4194 63.0855 13.5581C62.5842 13.6967 61.8962 13.7981 61.0215 13.8621L59.1335 14.0221C58.4722 14.0861 57.7842 14.1927 57.0695 14.3421C56.3549 14.4914 55.7042 14.7421 55.1175 15.0941C54.5309 15.4461 54.0455 15.9261 53.6615 16.5341C53.2775 17.1421 53.0855 17.9261 53.0855 18.8861C53.0855 20.4647 53.5655 21.6327 54.5255 22.3901C55.4855 23.1474 56.8402 23.5261 58.5895 23.5261ZM55.4535 21.5901C56.2215 22.1767 57.2775 22.4701 58.6215 22.4701C60.0082 22.4701 61.1069 22.2194 61.9175 21.7181C62.7282 21.2167 63.3469 20.6407 63.7735 19.9901C64.2002 19.3394 64.4722 18.7101 64.5895 18.1021C64.7069 17.4941 64.7655 17.0834 64.7655 16.8701V13.7981C64.4669 14.1607 64.0135 14.4061 63.4055 14.5341C62.7975 14.6621 62.1202 14.7581 61.3735 14.8221L59.3255 15.0141C58.7282 15.0781 58.1309 15.1687 57.5335 15.2861C56.9362 15.4034 56.3975 15.6007 55.9175 15.8781C55.4375 16.1554 55.0482 16.5341 54.7495 17.0141C54.4509 17.4941 54.3015 18.1181 54.3015 18.8861C54.3015 20.1021 54.6855 21.0034 55.4535 21.5901ZM71.1114 29.0301V19.7181H71.1754C71.6661 21.0621 72.4447 22.0327 73.5114 22.6301C74.578 23.2274 75.7941 23.5261 77.1594 23.5261C78.4181 23.5261 79.5114 23.3127 80.4394 22.8861C81.3674 22.4594 82.1354 21.8674 82.7434 21.1101C83.3514 20.3527 83.8047 19.4514 84.1034 18.4061C84.4021 17.3607 84.5514 16.2087 84.5514 14.9501C84.5514 13.7981 84.4021 12.6994 84.1034 11.6541C83.8047 10.6087 83.3514 9.6914 82.7434 8.90207C82.1354 8.11273 81.3674 7.4834 80.4394 7.01407C79.5114 6.54473 78.4181 6.31007 77.1594 6.31007C76.2634 6.31007 75.4687 6.44873 74.7754 6.72607C74.0821 7.0034 73.4901 7.35007 72.9994 7.76607C72.5087 8.18207 72.1141 8.6354 71.8154 9.12607C71.5167 9.61673 71.3034 10.0647 71.1754 10.4701H71.1114V6.69407H69.8954V29.0301H71.1114ZM74.2634 21.8461C75.0421 22.2621 76.0074 22.4701 77.1594 22.4701C78.2261 22.4701 79.1487 22.2674 79.9274 21.8621C80.7061 21.4567 81.3461 20.9127 81.8474 20.2301C82.3487 19.5474 82.7221 18.7527 82.9674 17.8461C83.2127 16.9394 83.3354 15.9741 83.3354 14.9501C83.3354 14.0114 83.2181 13.0887 82.9834 12.1821C82.7487 11.2754 82.3861 10.4647 81.8954 9.75007C81.4047 9.0354 80.7701 8.4594 79.9914 8.02207C79.2127 7.58473 78.2687 7.36607 77.1594 7.36607C76.0714 7.36607 75.1434 7.5794 74.3754 8.00607C73.6074 8.43273 72.9834 8.99807 72.5034 9.70207C72.0234 10.4061 71.6767 11.2114 71.4634 12.1181C71.2501 13.0247 71.1434 13.9687 71.1434 14.9501C71.1434 15.9314 71.2394 16.8754 71.4314 17.7821C71.6234 18.6887 71.9487 19.4887 72.4074 20.1821C72.8661 20.8754 73.4847 21.4301 74.2634 21.8461ZM87.4412 6.69407H88.6572V23.1421H87.4412V6.69407Z" fill="#36536B"/>
</svg>
